<?xml version="1.0" encoding="UTF-8" standalone="no"?>
<svg
   xmlns:dc="http://purl.org/dc/elements/1.1/"
   xmlns:cc="http://creativecommons.org/ns#"
   xmlns:rdf="http://www.w3.org/1999/02/22-rdf-syntax-ns#"
   xmlns:svg="http://www.w3.org/2000/svg"
   xmlns="http://www.w3.org/2000/svg"
   xmlns:sodipodi="http://sodipodi.sourceforge.net/DTD/sodipodi-0.dtd"
   xmlns:inkscape="http://www.inkscape.org/namespaces/inkscape"
   version="1.1"
   id="Layer_1"
   x="0px"
   y="0px"
   width="552"
   height="552"
   viewBox="0 0 552 552"
   enable-background="new 0 0 512 512"
   xml:space="preserve"
   sodipodi:docname="14.svg"><metadata
   id="metadata13"><rdf:RDF><cc:Work
       rdf:about=""><dc:format>image/svg+xml</dc:format><dc:type
         rdf:resource="http://purl.org/dc/dcmitype/StillImage" /></cc:Work></rdf:RDF></metadata><defs
   id="defs11" /><sodipodi:namedview
   pagecolor="#ffffff"
   bordercolor="#666666"
   borderopacity="1"
   objecttolerance="10"
   gridtolerance="10"
   guidetolerance="10"
   inkscape:pageopacity="0"
   inkscape:pageshadow="2"
   inkscape:window-width="640"
   inkscape:window-height="480"
   id="namedview9"
   fit-margin-top="20"
   fit-margin-left="20"
   fit-margin-right="20"
   fit-margin-bottom="20" />
	<g
   id="g6"
   transform="translate(20,20)">
		<g
   id="g4">
			<style
   id="current-color-scheme" />
			<path
   class="ColorScheme-Text"
   id="hint-apply-color-scheme"
   fill-rule="evenodd"
   clip-rule="evenodd"
   fill="currentColor"
   d="m 326.042,443.688 -18,-10.376 c 0.542,-3.124 0.958,-6.311 0.958,-9.624 0,-3.312 -0.416,-6.5 -1,-9.625 l 18.042,-10.396 c 8.417,-4.917 11.291,-15.729 6.458,-24.104 -4.876,-8.479 -15.667,-11.375 -24.125,-6.5 l -18.188,10.5 c -4.876,-4.146 -10.375,-7.396 -16.5,-9.604 v -20.896 c 0,-9.771 -7.938,-17.688 -17.688,-17.688 -9.75,0 -17.666,7.917 -17.666,17.688 v 20.875 c -6.126,2.188 -11.646,5.479 -16.521,9.625 l -18.146,-10.5 c -8.479,-4.875 -19.292,-2 -24.167,6.479 -4.875,8.417 -1.938,19.25 6.5,24.126 l 17.959,10.375 c -0.584,3.146 -0.959,6.334 -0.959,9.646 0,3.313 0.375,6.5 0.959,9.624 L 186,443.688 c -8.459,4.875 -11.375,15.75 -6.5,24.188 4.875,8.438 15.688,11.312 24.125,6.438 l 18.167,-10.438 c 4.874,4.125 10.396,7.375 16.542,9.562 v 20.938 c 0,9.749 7.916,17.624 17.666,17.624 9.75,0 17.688,-7.875 17.688,-17.624 v -20.938 c 6.125,-2.188 11.688,-5.438 16.521,-9.625 l 18.167,10.5 c 8.458,4.875 19.249,2 24.125,-6.438 4.874,-8.437 1.999,-19.25 -6.459,-24.187 z M 256,441.375 c -9.75,0 -17.688,-7.938 -17.688,-17.688 0,-9.75 7.938,-17.646 17.688,-17.646 9.75,0 17.667,7.896 17.667,17.646 0,9.75 -7.917,17.688 -17.667,17.688 z m 218.166,-45.125 -12.083,-3.208 c -0.291,-3.833 -1.208,-7.479 -2.896,-10.979 l 8.771,-8.771 c 4.125,-4.125 4.104,-10.792 0,-14.854 -4.083,-4.104 -10.708,-4.125 -14.833,0 l -8.791,8.75 c -3.459,-1.625 -7.146,-2.562 -10.959,-2.875 l -3.209,-12.062 c -1.499,-5.583 -7.25,-8.938 -12.874,-7.438 -5.604,1.521 -8.875,7.271 -7.417,12.875 l 3.209,11.896 c -1.584,1.084 -3.084,2.292 -4.5,3.667 -1.375,1.417 -2.542,2.916 -3.626,4.459 l -11.896,-3.209 c -5.604,-1.499 -11.396,1.876 -12.896,7.438 -1.499,5.625 1.876,11.354 7.417,12.875 l 12,3.229 c 0.334,3.771 1.292,7.458 2.979,10.959 l -8.812,8.812 c -4.083,4.104 -4.062,10.729 0.042,14.812 4.083,4.083 10.708,4.125 14.792,0.042 l 8.832,-8.833 c 3.459,1.707 7.168,2.666 11.001,2.957 l 3.166,12.021 c 1.542,5.604 7.25,8.938 12.876,7.438 5.583,-1.5 8.957,-7.249 7.458,-12.917 l -3.209,-11.896 c 1.5,-1.062 3.042,-2.25 4.459,-3.625 1.375,-1.396 2.542,-2.938 3.624,-4.479 l 11.917,3.209 c 5.604,1.5 11.375,-1.854 12.854,-7.417 1.5,-5.585 -1.812,-11.334 -7.396,-12.876 z m -35.854,6.688 c -4.125,4.125 -10.771,4.104 -14.875,0 -4.062,-4.062 -4.104,-10.729 0,-14.854 4.104,-4.083 10.771,-4.083 14.875,0 4.063,4.104 4.063,10.791 0,14.854 z M 118.938,342.5 l -11.875,3.188 c -1.104,-1.5 -2.25,-3.021 -3.646,-4.438 -1.416,-1.375 -2.916,-2.562 -4.479,-3.625 l 3.188,-11.938 c 1.5,-5.604 -1.834,-11.375 -7.375,-12.854 -5.625,-1.5 -11.375,1.834 -12.875,7.417 l -3.25,12.062 c -3.812,0.312 -7.458,1.25 -10.938,2.896 l -8.812,-8.771 c -4.125,-4.125 -10.75,-4.104 -14.834,0 -4.104,4.104 -4.104,10.75 0,14.854 l 8.771,8.771 c -1.646,3.5 -2.604,7.188 -2.896,10.979 l -12.042,3.208 c -5.625,1.542 -8.959,7.25 -7.458,12.875 1.521,5.583 7.271,8.875 12.896,7.417 l 11.875,-3.23 c 1.062,1.604 2.25,3.105 3.688,4.501 1.375,1.375 2.875,2.604 4.438,3.625 l -3.188,11.896 c -1.5,5.625 1.834,11.417 7.416,12.917 5.626,1.5 11.334,-1.833 12.834,-7.438 l 3.25,-12 c 3.812,-0.312 7.5,-1.271 11,-2.938 l 8.791,8.792 c 4.084,4.124 10.709,4.041 14.834,-0.042 4.062,-4.062 4.125,-10.708 0,-14.812 L 109.439,377 c 1.688,-3.46 2.688,-7.188 2.938,-11.001 l 12.062,-3.188 c 5.562,-1.521 8.896,-7.25 7.396,-12.875 -1.501,-5.56 -7.251,-8.894 -12.897,-7.436 z m -30.376,28.458 c -4.104,4.104 -10.75,4.104 -14.875,0 -4.062,-4.083 -4.062,-10.771 0,-14.833 4.125,-4.083 10.771,-4.083 14.875,0 4.104,4.083 4.063,10.75 0,14.833 z M 512,176 C 512,114.25 461.75,64 400,64 394.688,64 389.438,64.375 384.208,65.125 354.334,24.417 307.188,0 256,0 204.812,0 157.688,24.417 127.792,65.125 122.562,64.375 117.312,64 112,64 50.25,64 0,114.25 0,176 c 0,61.75 50.25,112 112,112 13.688,0 27.084,-2.5 39.709,-7.333 C 180.666,305.917 217.5,320 256,320 294.542,320 331.333,305.917 360.291,280.667 372.916,285.5 386.312,288 400,288 461.75,288 512,237.75 512,176 Z M 354.062,241.333 C 330.584,269.625 295.624,288 256,288 216.375,288 181.416,269.625 157.938,241.333 144.938,250.5 129.125,256 112,256 67.812,256 32,220.188 32,176 c 0,-44.188 35.812,-80 80,-80 10.812,0 21.062,2.208 30.438,6.083 C 163.667,60.667 206.291,32 256,32 305.709,32 348.334,60.667 369.541,102.083 378.938,98.208 389.209,96 400,96 c 44.188,0 80,35.812 80,80 0,44.188 -35.812,80 -80,80 -17.125,0 -32.916,-5.5 -45.938,-14.667 z" />
		</g>
	</g>
</svg>
