<?xml version="1.0" encoding="UTF-8" standalone="no"?>
<svg
   xmlns:dc="http://purl.org/dc/elements/1.1/"
   xmlns:cc="http://creativecommons.org/ns#"
   xmlns:rdf="http://www.w3.org/1999/02/22-rdf-syntax-ns#"
   xmlns:svg="http://www.w3.org/2000/svg"
   xmlns="http://www.w3.org/2000/svg"
   xmlns:sodipodi="http://sodipodi.sourceforge.net/DTD/sodipodi-0.dtd"
   xmlns:inkscape="http://www.inkscape.org/namespaces/inkscape"
   version="1.1"
   id="Layer_1"
   x="0px"
   y="0px"
   width="552"
   height="552"
   viewBox="0 0 552 552"
   enable-background="new 0 0 512 512"
   xml:space="preserve"
   sodipodi:docname="20.svg"><metadata
   id="metadata13"><rdf:RDF><cc:Work
       rdf:about=""><dc:format>image/svg+xml</dc:format><dc:type
         rdf:resource="http://purl.org/dc/dcmitype/StillImage" /></cc:Work></rdf:RDF></metadata><defs
   id="defs11" /><sodipodi:namedview
   pagecolor="#ffffff"
   bordercolor="#666666"
   borderopacity="1"
   objecttolerance="10"
   gridtolerance="10"
   guidetolerance="10"
   inkscape:pageopacity="0"
   inkscape:pageshadow="2"
   inkscape:window-width="640"
   inkscape:window-height="480"
   id="namedview9"
   fit-margin-top="20"
   fit-margin-left="20"
   fit-margin-right="20"
   fit-margin-bottom="20" />
	<g
   id="g6"
   transform="translate(20,20)">
		<g
   id="g4">
			<style
   id="current-color-scheme" />
			<path
   class="ColorScheme-Text"
   id="hint-apply-color-scheme"
   fill="currentColor"
   d="m 112,160 h 288 c 8.833,0 16,-7.167 16,-16 0,-8.833 -7.167,-16 -16,-16 H 112 c -8.833,0 -16,7.167 -16,16 0,8.833 7.167,16 16,16 z m 288,32 H 112 c -8.833,0 -16,7.167 -16,16 0,8.833 7.167,16 16,16 h 288 c 8.833,0 16,-7.167 16,-16 0,-8.833 -7.167,-16 -16,-16 z m 0,64 H 112 c -8.833,0 -16,7.167 -16,16 0,8.833 7.167,16 16,16 h 288 c 8.833,0 16,-7.167 16,-16 0,-8.833 -7.167,-16 -16,-16 z m 0,64 H 112 c -8.833,0 -16,7.167 -16,16 0,8.833 7.167,16 16,16 h 288 c 8.833,0 16,-7.167 16,-16 0,-8.833 -7.167,-16 -16,-16 z" />
		</g>
	</g>
</svg>
