<?xml version="1.0" encoding="UTF-8" standalone="no"?>
<svg
   xmlns:dc="http://purl.org/dc/elements/1.1/"
   xmlns:cc="http://creativecommons.org/ns#"
   xmlns:rdf="http://www.w3.org/1999/02/22-rdf-syntax-ns#"
   xmlns:svg="http://www.w3.org/2000/svg"
   xmlns="http://www.w3.org/2000/svg"
   xmlns:sodipodi="http://sodipodi.sourceforge.net/DTD/sodipodi-0.dtd"
   xmlns:inkscape="http://www.inkscape.org/namespaces/inkscape"
   version="1.1"
   id="Layer_1"
   x="0px"
   y="0px"
   width="552"
   height="552"
   viewBox="0 0 552 552"
   enable-background="new 0 0 512 512"
   xml:space="preserve"
   sodipodi:docname="27.svg"><metadata
   id="metadata9"><rdf:RDF><cc:Work
       rdf:about=""><dc:format>image/svg+xml</dc:format><dc:type
         rdf:resource="http://purl.org/dc/dcmitype/StillImage" /></cc:Work></rdf:RDF></metadata><defs
   id="defs7" /><sodipodi:namedview
   pagecolor="#ffffff"
   bordercolor="#666666"
   borderopacity="1"
   objecttolerance="10"
   gridtolerance="10"
   guidetolerance="10"
   inkscape:pageopacity="0"
   inkscape:pageshadow="2"
   inkscape:window-width="640"
   inkscape:window-height="480"
   id="namedview5"
   fit-margin-top="20"
   fit-margin-left="20"
   fit-margin-right="20"
   fit-margin-bottom="20" />
	<style
   id="current-color-scheme" />
	<path
   class="ColorScheme-Text"
   id="hint-apply-color-scheme"
   fill="currentColor"
   d="m 508.334,267.417 c 14.624,18.916 23.666,42.312 23.666,68 0,61.749 -50.25,112 -112,112 -13.688,0 -27.084,-2.5 -39.709,-7.333 -28.958,25.249 -65.749,39.333 -104.291,39.333 -38.5,0 -75.334,-14.084 -104.291,-39.333 -12.625,4.833 -26.021,7.333 -39.709,7.333 -61.75,0 -112,-50.251 -112,-112 0,-61.75 50.25,-112 112,-112 5.312,0 10.562,0.375 15.792,1.125 0.521,-0.729 1.166,-1.375 1.708,-2.083 -0.812,-4.938 -1.5,-9.896 -1.5,-15.041 0,-49.167 40,-89.146 89.125,-89.146 2.416,0 4.812,0.104 7.188,0.292 23.125,-28.854 58,-45.979 95.688,-45.979 37.709,0 72.562,17.125 95.688,45.979 2.375,-0.188 4.75,-0.292 7.146,-0.292 C 492,118.271 532,158.25 532,207.417 c 0,23.166 -9.084,44.104 -23.666,60 z" />
</svg>
