<?xml version="1.0" encoding="UTF-8" standalone="no"?>
<svg
   xmlns:dc="http://purl.org/dc/elements/1.1/"
   xmlns:cc="http://creativecommons.org/ns#"
   xmlns:rdf="http://www.w3.org/1999/02/22-rdf-syntax-ns#"
   xmlns:svg="http://www.w3.org/2000/svg"
   xmlns="http://www.w3.org/2000/svg"
   xmlns:sodipodi="http://sodipodi.sourceforge.net/DTD/sodipodi-0.dtd"
   xmlns:inkscape="http://www.inkscape.org/namespaces/inkscape"
   version="1.1"
   id="Layer_1"
   x="0px"
   y="0px"
   width="552"
   height="552"
   viewBox="0 0 552 552"
   enable-background="new 0 0 512 512"
   xml:space="preserve"
   sodipodi:docname="28.svg"><metadata
   id="metadata9"><rdf:RDF><cc:Work
       rdf:about=""><dc:format>image/svg+xml</dc:format><dc:type
         rdf:resource="http://purl.org/dc/dcmitype/StillImage" /></cc:Work></rdf:RDF></metadata><defs
   id="defs7" /><sodipodi:namedview
   pagecolor="#ffffff"
   bordercolor="#666666"
   borderopacity="1"
   objecttolerance="10"
   gridtolerance="10"
   guidetolerance="10"
   inkscape:pageopacity="0"
   inkscape:pageshadow="2"
   inkscape:window-width="640"
   inkscape:window-height="480"
   id="namedview5"
   fit-margin-top="20"
   fit-margin-left="20"
   fit-margin-right="20"
   fit-margin-bottom="20" />
	<style
   id="current-color-scheme" />
	<path
   class="ColorScheme-Text"
   id="hint-apply-color-scheme"
   fill="currentColor"
   d="m 532,260.001 c 0,-49.167 -40,-89.146 -89.167,-89.146 -2.396,0 -4.771,0.104 -7.146,0.291 -23.125,-28.854 -57.979,-45.978 -95.688,-45.978 -37.688,0 -72.562,17.124 -95.688,45.979 -2.375,-0.188 -4.771,-0.291 -7.188,-0.291 C 188,170.855 148,210.834 148,260.001 c 0,5.146 0.688,10.104 1.5,15.042 -0.542,0.708 -1.188,1.354 -1.708,2.083 -5.229,-0.75 -10.479,-1.125 -15.792,-1.125 -61.75,0 -112,50.249 -112,111.999 0,61.751 50.25,112 112,112 13.688,0 27.084,-2.5 39.709,-7.333 C 200.666,517.917 237.5,532 276,532 314.542,532 351.333,517.917 380.291,492.667 392.916,497.5 406.312,500 420,500 c 61.75,0 112,-50.249 112,-112 0,-25.688 -9.042,-49.083 -23.666,-67.999 14.582,-15.896 23.666,-36.833 23.666,-60 z M 420,468 c -17.125,0 -32.916,-5.499 -45.938,-14.666 C 350.583,481.625 315.624,500 276,500 236.375,500 201.416,481.625 177.938,453.334 164.938,462.501 149.126,468 132,468 87.812,468 52,432.188 52,388 c 0,-44.188 35.812,-79.999 80,-79.999 10.812,0 21.062,2.188 30.438,6.062 0.562,-1.062 1.25,-2 1.812,-3.021 C 169.875,300.771 176.812,291.354 184.916,283 208,259.084 240.083,244 276,244 c 49.709,0 92.334,28.666 113.541,70.062 5.646,-2.312 11.668,-3.813 17.875,-4.812 L 420,308 c 12.334,0 23.875,3.042 34.312,8 11.312,5.416 21.021,13.374 28.646,23.188 10.5,13.521 17.042,30.354 17.042,48.812 0,44.188 -35.812,80 -80,80 z m 65.562,-170.375 c -18.479,-13.458 -41,-21.624 -65.562,-21.624 -5.312,0 -10.562,0.375 -15.792,1.125 C 374.334,236.418 327.187,212.001 276,212.001 c -34.125,0 -66.312,11.042 -92.938,30.334 7.479,-22.854 28.729,-39.479 54.062,-39.479 7.75,0 15.062,1.562 21.75,4.332 15.188,-29.562 45.625,-50.02 81.125,-50.02 35.5,0 65.958,20.457 81.084,50.02 6.729,-2.77 14.083,-4.332 21.749,-4.332 31.584,0 57.167,25.583 57.167,57.146 10e-4,14.478 -5.561,27.54 -14.437,37.623 z" />
</svg>
