<?xml version="1.0" encoding="UTF-8" standalone="no"?>
<svg
   xmlns:dc="http://purl.org/dc/elements/1.1/"
   xmlns:cc="http://creativecommons.org/ns#"
   xmlns:rdf="http://www.w3.org/1999/02/22-rdf-syntax-ns#"
   xmlns:svg="http://www.w3.org/2000/svg"
   xmlns="http://www.w3.org/2000/svg"
   xmlns:sodipodi="http://sodipodi.sourceforge.net/DTD/sodipodi-0.dtd"
   xmlns:inkscape="http://www.inkscape.org/namespaces/inkscape"
   version="1.1"
   id="Layer_1"
   x="0px"
   y="0px"
   width="552"
   height="552"
   viewBox="0 0 552 552"
   enable-background="new 0 0 512 512"
   xml:space="preserve"
   sodipodi:docname="37.svg"><metadata
   id="metadata9"><rdf:RDF><cc:Work
       rdf:about=""><dc:format>image/svg+xml</dc:format><dc:type
         rdf:resource="http://purl.org/dc/dcmitype/StillImage" /></cc:Work></rdf:RDF></metadata><defs
   id="defs7" /><sodipodi:namedview
   pagecolor="#ffffff"
   bordercolor="#666666"
   borderopacity="1"
   objecttolerance="10"
   gridtolerance="10"
   guidetolerance="10"
   inkscape:pageopacity="0"
   inkscape:pageshadow="2"
   inkscape:window-width="640"
   inkscape:window-height="480"
   id="namedview5"
   fit-margin-top="20"
   fit-margin-left="20"
   fit-margin-right="20"
   fit-margin-bottom="20" />
	<style
   id="current-color-scheme" />
	<path
   class="ColorScheme-Text"
   id="hint-apply-color-scheme"
   fill="currentColor"
   d="m 420,84 c -5.312,0 -10.562,0.375 -15.792,1.125 C 374.334,44.417 327.188,20 276,20 224.812,20 177.688,44.417 147.792,85.125 142.562,84.375 137.312,84 132,84 70.25,84 20,134.25 20,196 c 0,61.75 50.25,112 112,112 13.688,0 27.084,-2.5 39.709,-7.333 21.541,18.771 47.416,31.291 75.104,36.521 L 212,372 l 32,32 -32,96 96,-96 -32,-32 11,-32.999 c 34.458,-2.438 67.125,-15.543 93.291,-38.334 C 392.916,305.5 406.312,308 420,308 481.75,308 532,257.75 532,196 532,134.25 481.75,84 420,84 Z m 0,192 c -17.125,0 -32.916,-5.5 -45.938,-14.667 -18.938,22.833 -45.562,38.625 -75.875,44.104 L 276,308 C 236.375,308 201.416,289.625 177.938,261.333 164.938,270.5 149.125,276 132,276 87.812,276 52,240.188 52,196 c 0,-44.188 35.812,-80 80,-80 10.812,0 21.062,2.208 30.438,6.083 C 183.667,80.667 226.291,52 276,52 325.709,52 368.334,80.667 389.541,122.083 398.938,118.208 409.209,116 420,116 c 44.188,0 80,35.812 80,80 0,44.188 -35.812,80 -80,80 z" />
</svg>
