<?xml version="1.0" encoding="UTF-8" standalone="no"?>
<svg
   xmlns:dc="http://purl.org/dc/elements/1.1/"
   xmlns:cc="http://creativecommons.org/ns#"
   xmlns:rdf="http://www.w3.org/1999/02/22-rdf-syntax-ns#"
   xmlns:svg="http://www.w3.org/2000/svg"
   xmlns="http://www.w3.org/2000/svg"
   xmlns:sodipodi="http://sodipodi.sourceforge.net/DTD/sodipodi-0.dtd"
   xmlns:inkscape="http://www.inkscape.org/namespaces/inkscape"
   version="1.1"
   id="Layer_1"
   x="0px"
   y="0px"
   width="552"
   height="552"
   viewBox="0 0 552 552"
   enable-background="new 0 0 512 512"
   xml:space="preserve"
   sodipodi:docname="8-new.svg"
   inkscape:version="1.0.2 (e86c870879, 2021-01-15)"><metadata
   id="metadata13"><rdf:RDF><cc:Work
       rdf:about=""><dc:format>image/svg+xml</dc:format><dc:type
         rdf:resource="http://purl.org/dc/dcmitype/StillImage" /></cc:Work></rdf:RDF></metadata><defs
   id="defs11" /><sodipodi:namedview
   pagecolor="#ffffff"
   bordercolor="#666666"
   borderopacity="1"
   objecttolerance="10"
   gridtolerance="10"
   guidetolerance="10"
   inkscape:pageopacity="0"
   inkscape:pageshadow="2"
   inkscape:window-width="1920"
   inkscape:window-height="1020"
   id="namedview9"
   fit-margin-top="20"
   fit-margin-left="20"
   fit-margin-right="20"
   fit-margin-bottom="20"
   inkscape:document-rotation="0"
   showgrid="false"
   inkscape:zoom="1.4710145"
   inkscape:cx="277.35961"
   inkscape:cy="303.19212"
   inkscape:window-x="0"
   inkscape:window-y="34"
   inkscape:window-maximized="1"
   inkscape:current-layer="g4" />
	<g
   id="g6"
   transform="translate(20,20)">
		<g
   id="g4">
			<style
   id="current-color-scheme" />
			
		<path
   id="path1412"
   d="m 120.95819,306.93582 c -17.688,0 -31.999999,14.312 -31.999999,32 0,17.688 14.311999,32 31.999999,32 17.688,0 32,-14.312 32,-32 0,-17.688 -14.312,-32 -32,-32 z m 64,128 c -17.688,0 -32,14.312 -32,32 0,17.688 14.312,32 32,32 17.688,0 32,-14.312 32,-32 0,-17.688 -14.312,-32 -32,-32 z M 399.20165,76.059915 c -5.312,0 -10.562,0.375 -15.792,1.125 -29.874,-40.708 -77.02,-65.125 -128.208,-65.125 -51.188,0 -98.312,24.417 -128.208,65.125 -5.23,-0.75 -10.48,-1.125 -15.792,-1.125 -61.749995,0 -111.99999526,50.250005 -111.99999526,112.000005 0,61.75 50.25000026,112 111.99999526,112 13.688,0 27.084,-2.5 39.709,-7.333 28.957,25.25 65.791,39.333 104.291,39.333 38.542,0 75.333,-14.083 104.291,-39.333 12.625,4.833 26.021,7.333 39.709,7.333 61.75,0 112,-50.25 112,-112 0,-61.75 -50.25,-112.000005 -112,-112.000005 z m 0,192.000005 c -17.125,0 -32.916,-5.5 -45.938,-14.667 -23.478,28.292 -58.438,46.667 -98.062,46.667 -39.625,0 -74.584,-18.375 -98.062,-46.667 -13,9.167 -28.813,14.667 -45.938,14.667 -44.187995,0 -79.999995,-35.812 -79.999995,-80 0,-44.188 35.812,-80 79.999995,-80 10.812,0 21.062,2.208 30.438,6.083 21.229,-41.416005 63.853,-70.083005 113.562,-70.083005 49.709,0 92.334,28.667 113.541,70.083005 9.397,-3.875 19.668,-6.083 30.459,-6.083 44.188,0 80,35.812 80,80 0,44.188 -35.812,80 -80,80 z M 288.26158,418.95623 c 0,17.688 14.312,32 32,32 17.688,0 32,-14.312 32,-32 0,-17.688 -32,-64 -32,-64 0,0 -32,46.312 -32,64 z" /></g>
	</g>
</svg>
