<?xml version="1.0" encoding="UTF-8" standalone="no"?>
<svg
   xmlns:dc="http://purl.org/dc/elements/1.1/"
   xmlns:cc="http://creativecommons.org/ns#"
   xmlns:rdf="http://www.w3.org/1999/02/22-rdf-syntax-ns#"
   xmlns:svg="http://www.w3.org/2000/svg"
   xmlns="http://www.w3.org/2000/svg"
   xmlns:sodipodi="http://sodipodi.sourceforge.net/DTD/sodipodi-0.dtd"
   xmlns:inkscape="http://www.inkscape.org/namespaces/inkscape"
   version="1.1"
   id="Layer_1"
   x="0px"
   y="0px"
   width="552"
   height="552"
   viewBox="0 0 552 552"
   enable-background="new 0 0 512 512"
   xml:space="preserve"
   sodipodi:docname="9.svg"><metadata
   id="metadata13"><rdf:RDF><cc:Work
       rdf:about=""><dc:format>image/svg+xml</dc:format><dc:type
         rdf:resource="http://purl.org/dc/dcmitype/StillImage" /></cc:Work></rdf:RDF></metadata><defs
   id="defs11" /><sodipodi:namedview
   pagecolor="#ffffff"
   bordercolor="#666666"
   borderopacity="1"
   objecttolerance="10"
   gridtolerance="10"
   guidetolerance="10"
   inkscape:pageopacity="0"
   inkscape:pageshadow="2"
   inkscape:window-width="640"
   inkscape:window-height="480"
   id="namedview9"
   fit-margin-top="20"
   fit-margin-left="20"
   fit-margin-right="20"
   fit-margin-bottom="20" />
	<g
   id="g6"
   transform="translate(20,20)">
		<g
   id="g4">
			<style
   id="current-color-scheme" />
			<path
   class="ColorScheme-Text"
   id="hint-apply-color-scheme"
   fill-rule="evenodd"
   clip-rule="evenodd"
   fill="currentColor"
   d="m 400,96 c -5.312,0 -10.562,0.375 -15.792,1.125 C 354.334,56.417 307.188,32 256,32 204.812,32 157.688,56.417 127.792,97.125 122.562,96.375 117.312,96 112,96 50.25,96 0,146.25 0,208 c 0,61.75 50.25,112 112,112 13.688,0 27.084,-2.5 39.709,-7.333 C 180.666,337.917 217.5,352 256,352 294.542,352 331.333,337.917 360.291,312.667 372.916,317.5 386.312,320 400,320 461.75,320 512,269.75 512,208 512,146.25 461.75,96 400,96 Z m 0,192 c -17.125,0 -32.916,-5.5 -45.938,-14.667 C 330.584,301.625 295.624,320 256,320 216.375,320 181.416,301.625 157.938,273.333 144.938,282.5 129.125,288 112,288 67.812,288 32,252.188 32,208 c 0,-44.188 35.812,-80 80,-80 10.812,0 21.062,2.208 30.438,6.083 C 163.667,92.667 206.291,64 256,64 305.709,64 348.334,92.667 369.541,134.083 378.938,130.208 389.209,128 400,128 c 44.188,0 80,35.812 80,80 0,44.188 -35.812,80 -80,80 z M 224,448 c 0,17.688 14.312,32 32,32 17.688,0 32,-14.312 32,-32 0,-17.688 -32,-64 -32,-64 0,0 -32,46.312 -32,64 z" />
		</g>
	</g>
</svg>
