<?xml version="1.0" encoding="iso-8859-1"?>
<!-- Generator: Adobe Illustrator 19.0.0, SVG Export Plug-In . SVG Version: 6.00 Build 0)  -->
<svg version="1.1" id="Capa_1" xmlns="http://www.w3.org/2000/svg" xmlns:xlink="http://www.w3.org/1999/xlink" x="0px" y="0px"
	 viewBox="0 0 60 60" style="enable-background:new 0 0 60 60;" xml:space="preserve">
<defs id="defs3051">
  <style type="text/css" id="current-color-scheme">
    .ColorScheme-Text {
      color:#232629;
    }
    </style>
</defs>
<g>
	<path style="fill:currentColor;fill-opacity:1;stroke:none" class="ColorScheme-Text" d="M44.688,10.462C45.349,13.416,46,17.502,46,20s-0.651,6.584-1.312,9.538l3.8-0.513C49.168,26.278,50,22.206,50,20
		s-0.832-6.278-1.513-9.024L44.688,10.462z"/>
	<path style="fill:currentColor;fill-opacity:1;stroke:none" class="ColorScheme-Text" d="M38.584,9.638C39.365,12.576,40,16.994,40,20s-0.635,7.424-1.416,10.362l3.986-0.539C43.248,27.011,44,22.55,44,20
		s-0.752-7.011-1.429-9.824L38.584,9.638z"/>
	<path style="fill:currentColor;fill-opacity:1;stroke:none" class="ColorScheme-Text" d="M56.073,12.001l-5.46-0.738C51.262,14.002,52,17.746,52,20s-0.738,5.998-1.387,8.737l5.46-0.738
		C57.574,27.965,60,26.848,60,20S57.574,12.035,56.073,12.001z"/>
	<path style="fill:currentColor;fill-opacity:1;stroke:none" class="ColorScheme-Text" d="M19.556,7.066C19.372,7.022,19.186,7,19,7c-0.969,0-1.797,0.581-2.49,1.55L6,16.057V9.899C8.279,9.434,10,7.414,10,5
		c0-2.757-2.243-5-5-5S0,2.243,0,5c0,2.414,1.721,4.434,4,4.899V48H2v6H0v6h10v-6H8v-6H6V20.414l9.797,9.797
		C16.603,31.916,17.671,33,19,33c0.186,0,0.372-0.022,0.556-0.066l16.868-2.279C37.2,28.158,38,23.368,38,20
		s-0.8-8.158-1.576-10.654L19.556,7.066z M8,58H2v-2h6V58z M4,54v-4h2v4H4z M21.979,21.238c-0.006,0.165-0.016,0.322-0.024,0.483
		c-0.011,0.229-0.021,0.46-0.036,0.681c-0.013,0.189-0.03,0.37-0.046,0.554c-0.016,0.184-0.031,0.369-0.049,0.547
		c-0.019,0.18-0.04,0.354-0.062,0.528c-0.021,0.176-0.043,0.352-0.067,0.521c-0.021,0.151-0.044,0.296-0.068,0.442
		c-0.031,0.192-0.062,0.383-0.095,0.567c-0.019,0.105-0.039,0.207-0.059,0.31c-0.044,0.226-0.09,0.448-0.139,0.659
		c-0.011,0.048-0.022,0.096-0.033,0.144c-0.467,1.974-1.095,3.301-1.647,3.921c0,0,0,0,0,0c-0.052,0.059-0.103,0.101-0.153,0.147
		c-0.036,0.032-0.073,0.069-0.109,0.095c-0.021,0.016-0.042,0.025-0.062,0.038c-0.009,0.006-0.018,0.009-0.027,0.015l-1.857-1.857
		C16.679,27.212,16,24.165,16,20c0-5.033,0.99-8.439,1.931-10.008l1.293-0.924c0.035,0.017,0.071,0.034,0.107,0.057
		c0.021,0.014,0.041,0.022,0.062,0.038c0.036,0.026,0.072,0.063,0.109,0.095c0.051,0.046,0.101,0.088,0.153,0.147c0,0,0,0,0,0
		c0.552,0.62,1.18,1.947,1.647,3.921c0.011,0.048,0.022,0.095,0.033,0.144c0.048,0.212,0.094,0.433,0.139,0.659
		c0.02,0.102,0.04,0.205,0.059,0.31c0.033,0.184,0.065,0.375,0.095,0.567c0.023,0.146,0.046,0.291,0.067,0.441
		c0.024,0.169,0.045,0.346,0.067,0.522c0.021,0.174,0.043,0.348,0.062,0.528c0.018,0.178,0.033,0.363,0.049,0.547
		c0.016,0.184,0.033,0.365,0.046,0.554c0.015,0.221,0.025,0.452,0.036,0.681c0.008,0.161,0.018,0.318,0.024,0.483
		C21.992,19.164,22,19.575,22,20S21.992,20.836,21.979,21.238z M2,5c0-1.654,1.346-3,3-3s3,1.346,3,3S6.654,8,5,8S2,6.654,2,5z
		 M6.542,18.127l8.409-6.006C14.322,14.408,14,17.21,14,20c0,2.116,0.188,4.237,0.551,6.137L6.542,18.127z"/>
</g>
</svg>
