<?xml version="1.0" encoding="utf-8"?>
<!-- Generator: Adobe Illustrator 17.1.0, SVG Export Plug-In . SVG Version: 6.00 Build 0)  -->
<!DOCTYPE svg PUBLIC "-//W3C//DTD SVG 1.1//EN" "http://www.w3.org/Graphics/SVG/1.1/DTD/svg11.dtd">
<svg version="1.1"
	xmlns="http://www.w3.org/2000/svg"
	xmlns:xlink="http://www.w3.org/1999/xlink" x="0px" y="0px" viewBox="0 0 200 200" enable-background="new 0 0 200 200" xml:space="preserve">
	<style id="current-color-scheme" />
	<g id="hurricane">
		<g>
			<path class="ColorScheme-Text" fill="currentColor" id="hint-apply-color-scheme" d="M175.4,2.8c-2.1-2.1-5.4-2.3-7.8-0.7l0,0L77.7,53.9c-1.3,0.6-2.5,1.3-3.8,2c-24.3,14.4-32.4,45.8-18,70.1
			c3.9,6.6,9.1,12,15,16.1l-46,46l-0.4,0.4h0c-2.4,2.4-2.4,6.3,0,8.7c2.1,2.1,5.4,2.3,7.8,0.7l0,0l89.9-51.9c1.3-0.6,2.5-1.3,3.8-2
			c24.3-14.4,32.4-45.8,18-70.1c-3.9-6.6-9.1-12-15-16.1l46-46l0.4-0.4h0C177.8,9.1,177.8,5.2,175.4,2.8z M109.1,115.5
			c-8.5,5-19.5,2.2-24.6-6.3c-5-8.5-2.2-19.5,6.3-24.6c8.5-5.1,19.5-2.2,24.6,6.3C120.5,99.4,117.7,110.4,109.1,115.5z"/>
		</g>
	</g>
</svg>
