<?xml version="1.0" encoding="UTF-8" standalone="no"?>
<svg
   xmlns:dc="http://purl.org/dc/elements/1.1/"
   xmlns:cc="http://creativecommons.org/ns#"
   xmlns:rdf="http://www.w3.org/1999/02/22-rdf-syntax-ns#"
   xmlns:svg="http://www.w3.org/2000/svg"
   xmlns="http://www.w3.org/2000/svg"
   xmlns:sodipodi="http://sodipodi.sourceforge.net/DTD/sodipodi-0.dtd"
   xmlns:inkscape="http://www.inkscape.org/namespaces/inkscape"
   version="1.1"
   id="Layer_1"
   x="0px"
   y="0px"
   width="552"
   height="552"
   viewBox="0 0 552 552"
   enable-background="new 0 0 512 512"
   xml:space="preserve"
   sodipodi:docname="3.svg"><metadata
   id="metadata13"><rdf:RDF><cc:Work
       rdf:about=""><dc:format>image/svg+xml</dc:format><dc:type
         rdf:resource="http://purl.org/dc/dcmitype/StillImage" /></cc:Work></rdf:RDF></metadata><defs
   id="defs11" /><sodipodi:namedview
   pagecolor="#ffffff"
   bordercolor="#666666"
   borderopacity="1"
   objecttolerance="10"
   gridtolerance="10"
   guidetolerance="10"
   inkscape:pageopacity="0"
   inkscape:pageshadow="2"
   inkscape:window-width="640"
   inkscape:window-height="480"
   id="namedview9"
   fit-margin-top="20"
   fit-margin-left="20"
   fit-margin-right="20"
   fit-margin-bottom="20" />
	<style
   id="current-color-scheme" />
	<g
   id="g6"
   transform="translate(20,20)">
		<g
   id="g4">
			<path
   class="ColorScheme-Text"
   id="hint-apply-color-scheme"
   fill="currentColor"
   d="m 192,384 32,32 -32,96 96,-96 -32,-32 32,-64 z M 512,134.833 c 0,-49.146 -40,-89.124 -89.167,-89.124 -2.396,0 -4.771,0.083 -7.146,0.27 C 392.562,17.146 357.709,0 320,0 c -37.688,0 -72.562,17.146 -95.688,45.979 -2.375,-0.187 -4.771,-0.27 -7.188,-0.27 C 168,45.709 128,85.688 128,134.833 c 0,5.146 0.688,10.125 1.5,15.042 -0.542,0.708 -1.188,1.354 -1.708,2.083 -5.229,-0.75 -10.479,-1.125 -15.792,-1.125 -61.75,0 -112,50.25 -112,112 0,61.751 50.25,112 112,112 13.688,0 27.084,-2.499 39.709,-7.333 1.104,0.959 2.416,1.625 3.541,2.562 l 28.312,-18.875 c -9.438,-6.688 -18.25,-14.125 -25.625,-23 -13,9.146 -28.812,14.646 -45.938,14.646 -44.188,0 -80,-35.791 -80,-80 0,-44.167 35.812,-80 80,-80 10.812,0 21.062,2.209 30.438,6.083 0.562,-1.083 1.25,-2 1.812,-3.042 5.625,-10.271 12.562,-19.667 20.666,-28.042 23.084,-23.896 55.167,-39 91.084,-39 49.709,0 92.334,28.667 113.541,70.083 5.646,-2.333 11.668,-3.833 17.875,-4.833 l 12.584,-1.25 c 12.334,0 23.875,3.042 34.312,8 11.312,5.417 21.021,13.375 28.646,23.208 10.5,13.521 17.042,30.334 17.042,48.792 0,44.209 -35.812,80 -80,80 -17.125,0 -32.916,-5.5 -45.938,-14.646 -14,16.875 -32.438,29.562 -53.146,37.562 l -5.979,11.938 18.25,18.25 c 17.062,-6.646 33.021,-16.188 47.104,-28.438 12.625,4.834 26.021,7.333 39.709,7.333 61.75,0 112,-50.249 112,-112 0,-25.666 -9.042,-49.083 -23.666,-68 C 502.916,178.958 512,158.021 512,134.833 Z m -46.438,37.625 c -18.479,-13.438 -41,-21.625 -65.562,-21.625 -5.312,0 -10.562,0.375 -15.792,1.125 C 354.334,111.271 307.188,86.833 256,86.833 c -34.125,0 -66.312,11.062 -92.938,30.354 7.479,-22.853 28.729,-39.478 54.062,-39.478 7.75,0 15.062,1.562 21.75,4.333 C 254.062,52.458 284.5,32 320,32 c 35.5,0 65.958,20.458 81.084,50.042 6.729,-2.771 14.083,-4.333 21.749,-4.333 31.584,0 57.167,25.583 57.167,57.124 0,14.5 -5.562,27.563 -14.438,37.625 z" />
		</g>
	</g>
</svg>
