<?xml version="1.0" encoding="UTF-8" standalone="no"?>
<svg
   xmlns:dc="http://purl.org/dc/elements/1.1/"
   xmlns:cc="http://creativecommons.org/ns#"
   xmlns:rdf="http://www.w3.org/1999/02/22-rdf-syntax-ns#"
   xmlns:svg="http://www.w3.org/2000/svg"
   xmlns="http://www.w3.org/2000/svg"
   xmlns:sodipodi="http://sodipodi.sourceforge.net/DTD/sodipodi-0.dtd"
   xmlns:inkscape="http://www.inkscape.org/namespaces/inkscape"
   version="1.1"
   id="Layer_1"
   x="0px"
   y="0px"
   width="552"
   height="552"
   viewBox="0 0 552 552"
   enable-background="new 0 0 512 512"
   xml:space="preserve"
   sodipodi:docname="46.svg"><metadata
   id="metadata13"><rdf:RDF><cc:Work
       rdf:about=""><dc:format>image/svg+xml</dc:format><dc:type
         rdf:resource="http://purl.org/dc/dcmitype/StillImage" /></cc:Work></rdf:RDF></metadata><defs
   id="defs11" /><sodipodi:namedview
   pagecolor="#ffffff"
   bordercolor="#666666"
   borderopacity="1"
   objecttolerance="10"
   gridtolerance="10"
   guidetolerance="10"
   inkscape:pageopacity="0"
   inkscape:pageshadow="2"
   inkscape:window-width="640"
   inkscape:window-height="480"
   id="namedview9"
   fit-margin-top="20"
   fit-margin-left="20"
   fit-margin-right="20"
   fit-margin-bottom="20" />
	<g
   id="g6"
   transform="translate(20,20)">
		<g
   id="g4">
			<style
   id="current-color-scheme" />
			<path
   class="ColorScheme-Text"
   id="hint-apply-color-scheme"
   fill-rule="evenodd"
   clip-rule="evenodd"
   fill="currentColor"
   d="m 326.042,443.688 -18,-10.376 c 0.542,-3.124 0.957,-6.311 0.957,-9.624 0,-3.312 -0.415,-6.5 -0.999,-9.625 l 18.042,-10.396 c 8.417,-4.917 11.291,-15.729 6.458,-24.104 -4.876,-8.479 -15.667,-11.375 -24.125,-6.5 l -18.188,10.5 c -4.876,-4.146 -10.375,-7.396 -16.5,-9.604 v -20.896 c 0,-9.771 -7.938,-17.688 -17.688,-17.688 -9.75,0 -17.667,7.917 -17.667,17.688 v 20.875 c -6.125,2.188 -11.646,5.479 -16.521,9.625 l -18.146,-10.5 c -8.479,-4.875 -19.291,-2 -24.166,6.479 -4.875,8.417 -1.938,19.25 6.5,24.126 l 17.959,10.375 c -0.584,3.146 -0.959,6.334 -0.959,9.646 0,3.313 0.375,6.5 0.959,9.624 L 186,443.688 c -8.459,4.875 -11.375,15.75 -6.5,24.188 4.875,8.438 15.688,11.312 24.125,6.438 l 18.167,-10.438 c 4.874,4.125 10.396,7.375 16.541,9.562 v 20.938 c 0,9.749 7.917,17.624 17.667,17.624 9.75,0 17.688,-7.875 17.688,-17.624 v -20.938 c 6.125,-2.188 11.688,-5.438 16.521,-9.625 l 18.167,10.5 c 8.458,4.875 19.249,2 24.125,-6.438 4.874,-8.437 1.999,-19.25 -6.459,-24.187 z M 256,441.375 c -9.75,0 -17.688,-7.938 -17.688,-17.688 0,-9.75 7.938,-17.646 17.688,-17.646 9.75,0 17.666,7.896 17.666,17.646 0,9.75 -7.916,17.688 -17.666,17.688 z M 400,64 c -5.312,0 -10.562,0.375 -15.792,1.125 C 354.333,24.417 307.188,0 256,0 204.812,0 157.688,24.417 127.792,65.125 122.562,64.375 117.312,64 112,64 50.25,64 0,114.25 0,176 c 0,61.75 50.25,112 112,112 13.688,0 27.084,-2.5 39.709,-7.333 C 180.666,305.917 217.5,320 256,320 294.542,320 331.333,305.917 360.291,280.667 372.916,285.5 386.312,288 400,288 461.75,288 512,237.75 512,176 512,114.25 461.75,64 400,64 Z" />
		</g>
	</g>
</svg>
