<?xml version="1.0" encoding="utf-8"?>
<!-- Generator: Adobe Illustrator 15.1.0, SVG Export Plug-In . SVG Version: 6.00 Build 0)  -->
<!DOCTYPE svg PUBLIC "-//W3C//DTD SVG 1.1//EN" "http://www.w3.org/Graphics/SVG/1.1/DTD/svg11.dtd">
<svg version="1.1" id="Layer_1"
	xmlns="http://www.w3.org/2000/svg"
	xmlns:xlink="http://www.w3.org/1999/xlink" x="0px" y="0px" width="512px" height="512px" viewBox="0 0 512 512" enable-background="new 0 0 512 512" xml:space="preserve">
	<g>
		<g>
			<style id="current-color-scheme" />
			<path class="ColorScheme-Text" id="hint-apply-color-scheme" fill="currentColor" d="M256,0C114.604,0,0,114.604,0,256c0,141.375,114.604,256,256,256c141.375,0,256-114.625,256-256
			C512,114.604,397.375,0,256,0z M256,448c-105.875,0-192-86.125-192-192S150.125,64,256,64s192,86.125,192,192S361.875,448,256,448
			z M160,352l128-64l64-128l-128,64L160,352z"/>
		</g>
	</g>
</svg>
