<!--
    SPDX-FileCopyrightText: 2024 Evgeny Kazantsev <exequtic@gmail.com>
    SPDX-License-Identifier: MIT

    https://github.com/exequtic/apdatifier
-->

<svg
	version="1.1"
	xmlns="http://www.w3.org/2000/svg"
	viewBox="0 0 23 23">
	<defs>
		<style type="text/css" id="current-color-scheme">
			.ColorScheme-Text { color: #232629; }     
		</style>
	</defs>
	<path
		class="ColorScheme-Text"
		style="fill:currentColor"
        d="m22.43,12.56s-.05-.04-.07-.07c-.04-.04-.07-.08-.12-.11,0,0,0,0,0,0,0,0,0,0,0,0l-4.97-2.6v-5.2c0-.09-.03-.17-.07-.24-.02-.03-.05-.04-.07-.07-.04-.04-.07-.08-.12-.11,0,0,0,0,0,0,0,0,0,0,0,0l-4.75-2.48c-.47-.24-1.04-.24-1.5,0l-4.75,2.48s0,0,0,0c0,0,0,0,0,0-.05.03-.08.07-.12.11-.02.02-.06.04-.07.07-.05.07-.07.15-.07.24v5.2L.76,12.38s0,0,0,0c0,0,0,0,0,0-.06.03-.09.08-.13.12-.02.02-.04.03-.06.05-.05.07-.07.15-.07.24v5.48c0,.17.1.33.26.42l5.24,2.74c.08.04.17.06.26.06s.18-.02.26-.06l4.98-2.6,4.98,2.6c.08.04.17.06.26.06s.18-.02.26-.06l5.24-2.74c.16-.09.26-.24.26-.42v-5.48c0-.09-.03-.17-.07-.24Zm-16.9,2.05l-2.7-1.41c-.34-.18-.34-.62,0-.79l2.7-1.41c.45-.24,1-.24,1.45,0l2.7,1.41c.34.18.34.62,0,.79l-2.7,1.41c-.45.24-1,.24-1.45,0Zm5.44,2.75c0,.4-.23.76-.61.96l-2.75,1.44c-.37.19-.83-.05-.83-.44v-2.86c0-.4.23-.76.61-.96l2.75-1.44c.37-.19.83.05.83.44v2.86Zm-.2-10.97l-2.7-1.41c-.34-.18-.34-.62,0-.79l2.7-1.41c.45-.24,1-.24,1.45,0l2.7,1.41c.34.18.34.62,0,.79l-2.7,1.41c-.45.24-1,.24-1.45,0Zm1.25,4.71v-2.86c0-.4.23-.76.61-.96l2.75-1.44c.37-.19.83.05.83.44v2.86c0,.4-.23.76-.61.96l-2.75,1.44c-.37.19-.83-.05-.83-.44Zm3.99,3.51l-2.7-1.41c-.34-.18-.34-.62,0-.79l2.7-1.41c.45-.24,1-.24,1.45,0l2.7,1.41c.34.18.34.62,0,.79l-2.7,1.41c-.45.24-1,.24-1.45,0Zm5.44,2.75c0,.4-.23.76-.61.96l-2.75,1.44c-.37.19-.83-.05-.83-.44v-2.86c0-.4.23-.76.61-.96l2.75-1.44c.37-.19.83.05.83.44v2.86Z"/>
</svg>