<svg
	version="1.1"
	xmlns="http://www.w3.org/2000/svg"
	viewBox="0 0 24 24">
	<defs>
		<style type="text/css" id="current-color-scheme">
			.ColorScheme-Text { color: #232629; }     
		</style>
	</defs>
	<path
		class="ColorScheme-Text"
		style="fill:currentColor"
     	d="m 19.854756,20.481011 c -1.262396,-0.531251 -2.820748,-1.029352 -4.628787,-1.322602 -0.496751,-0.08075 -0.849454,-0.542301 -0.763897,-1.025102 0.05151,-0.28815 0.0777,-0.5899 0.0777,-0.905251 0,-1.996653 -1.097395,-3.618455 -2.445348,-3.618455 -1.357556,0 -2.4549513,1.621802 -2.4549513,3.618455 0,0.30005 0.025317,0.594151 0.074207,0.875501 0.082937,0.485351 -0.2697652,0.948602 -0.7691364,1.025102 -1.8831212,0.28815 -3.5008395,0.811751 -4.8121254,1.361702 -0.7988193,0.1122 -1.4439859,-0.777751 -0.9725516,-1.490052 0.1152394,-0.169151 0.231352,-0.346801 0.3369882,-0.525301 0.2793686,-0.430951 0.5587371,-0.862751 0.8276293,-1.312402 1.2327135,-1.977953 2.464554,-4.125056 3.6588544,-6.431109 0.028809,-0.0561 0.05762,-0.122401 0.086429,-0.178501 C 8.3203287,10.075296 8.560411,9.5967448 8.7917631,9.1190441 8.9070025,8.8937938 9.0231151,8.6591935 9.1287513,8.4339431 9.3120869,8.5461433 9.4945495,8.6770435 9.706695,8.8087937 10.669644,9.3901945 11.574972,9.718295 12.229743,9.8865952 11.748705,9.5304447 11.218778,9.1088441 10.679247,8.5835434 10.274162,8.1899928 9.9179674,7.7964422 9.6097889,7.4122417 10.062017,6.4372903 10.495912,5.4810389 10.880916,4.5528376 c 0.06722,-0.1496002 0.134447,-0.3000505 0.192939,-0.4403007 0.336988,-0.8151511 1.502479,-0.8151511 1.84907,-0.00935 0.163257,0.3842006 0.327385,0.7777511 0.501118,1.1721517 0.144049,0.3468005 0.308178,0.693601 0.471434,1.0497515 0.105636,0.2431004 0.221748,0.4964007 0.336989,0.7497011 0.231352,0.5066007 0.471434,1.0123514 0.721992,1.5283022 0.231352,0.4972507 0.481038,0.9936514 0.7412,1.4994026 0,0.0187 0.0096,0.02805 0.01921,0.04675 0.616356,1.228251 1.25192,2.399553 1.897086,3.534305 0.461831,0.833851 0.934139,1.640502 1.415176,2.419103 0.164128,0.290701 0.336989,0.572051 0.520325,0.853402 0.124842,0.1972 0.240954,0.39355 0.365797,0.5814 h -0.01048 c -0.336988,-0.17765 -0.702787,-0.3468 -1.097395,-0.49725 -0.683579,-0.262651 -1.319143,-0.421601 -1.868276,-0.515951 0.750802,0.365501 1.617718,0.844051 2.523047,1.481552 0.558736,0.402901 1.05898,0.796451 1.482399,1.190852 0.250558,0.674901 -0.356196,1.405902 -1.087792,1.284352 z"/>
</svg>