<!--
    SPDX-FileCopyrightText: 2024 Evgeny Kazantsev <exequtic@gmail.com>
    SPDX-License-Identifier: MIT

    https://github.com/exequtic/apdatifier
-->

<svg
	version="1.1"
	xmlns="http://www.w3.org/2000/svg"
	viewBox="0 0 23 23">
	<defs>
		<style type="text/css" id="current-color-scheme">
			.ColorScheme-Text { color: #232629; }     
		</style>
	</defs>
	<path
		class="ColorScheme-Text"
		style="fill:currentColor"
        d="m21.5,6.21c0-.06-.04-.11-.06-.18-.02-.09-.04-.19-.09-.27-.04-.06-.11-.1-.16-.15-.06-.06-.11-.13-.19-.17,0,0-.02,0-.03,0,0,0-.01-.01-.02-.02l-7.71-3.55c-1.1-.51-2.39-.51-3.49,0l-7.71,3.55s-.01.01-.02.02c0,0-.02,0-.03,0-.08.04-.12.11-.19.17-.05.05-.12.09-.16.15-.05.08-.07.17-.09.27-.02.06-.06.11-.06.18,0,0,0,0,0,.01,0,0,0,0,0,.01v9.57c0,.32.19.62.49.78l9.01,4.79c.15.08.32.12.49.12s.34-.04.49-.12l8.5-4.51c.62-.33,1.01-.94,1.01-1.6V6.24s0,0,0-.01c0,0,0,0,0-.01Zm-16.07-.32l5.2-2.4c.55-.25,1.19-.25,1.73,0l5.2,2.4c.37.17.39.66.03.85l-5.13,2.72c-.6.32-1.33.32-1.93,0l-5.13-2.72c-.36-.19-.35-.68.03-.85Zm14.1,8.5c0,.55-.32,1.06-.84,1.33l-5.44,2.88c-.34.18-.77-.05-.77-.41v-5.77c0-.55.32-1.05.83-1.33l3.24-1.72,2.2-1.16c.34-.18.77.05.77.41v5.77Z"/>
</svg>