<!--
    SPDX-FileCopyrightText: 2024 Evgeny Kazantsev <exequtic@gmail.com>
    SPDX-License-Identifier: MIT

    https://github.com/exequtic/apdatifier
-->

<svg version="1.0" xmlns="http://www.w3.org/2000/svg" viewBox="0 0 23 23">
    <path d="m14.49,15.49c-.46,0-.92-.2-1.24-.6-.58-.72-.5-1.8.18-2.41l3.92-3.5-3.93-3.55c-.68-.62-.76-1.7-.17-2.41.59-.71,1.62-.8,2.3-.18l5.38,4.85c.36.33.57.8.57,1.3,0,.5-.21.97-.57,1.3l-5.38,4.8c-.31.27-.68.41-1.06.41Z"/>
    <ellipse cx="7.09" cy="4.35" rx="1.51" ry="1.58"/>
    <ellipse cx="3.68" cy="11.77" rx="2.18" ry="2.28"/>
    <ellipse cx="8.48" cy="19.22" rx="3.04" ry="3.19"/>
</svg>