<!--
    SPDX-FileCopyrightText: 2024 Evgeny Kazantsev <exequtic@gmail.com>
    SPDX-License-Identifier: MIT

    https://github.com/exequtic/apdatifier
-->

<svg version="1.0" xmlns="http://www.w3.org/2000/svg" viewBox="0 0 23 23">
    <path d="m18.18,3.3h-3.48c-.43-1.1-1.53-1.88-2.81-1.88s-2.37.78-2.81,1.88h-3.36c-1.53,0-2.77,1.2-2.77,2.68v12.75c0,1.48,1.24,2.68,2.77,2.68h12.46c1.53,0,2.77-1.2,2.77-2.68V5.98c0-1.48-1.24-2.68-2.77-2.68Zm-6.29-.35c.59,0,1.07.47,1.07,1.04s-.48,1.04-1.07,1.04-1.07-.47-1.07-1.04.48-1.04,1.07-1.04Zm-.27,14.89h-4.95c-.54,0-.98-.43-.98-.95s.44-.95.98-.95h4.95c.54,0,.98.43.98.95s-.44.95-.98.95Zm3.22-4.36H6.68c-.54,0-.98-.43-.98-.95s.44-.95.98-.95h8.17c.54,0,.98.43.98.95s-.44.95-.98.95Zm2.56-4.36H6.68c-.54,0-.98-.43-.98-.95s.44-.95.98-.95h10.73c.54,0,.98.43.98.95s-.44.95-.98.95Z"/>
</svg>