<!--
    SPDX-FileCopyrightText: 2024 Evgeny Kazantsev <exequtic@gmail.com>
    SPDX-License-Identifier: MIT

    https://github.com/exequtic/apdatifier
-->

<svg version="1.0" xmlns="http://www.w3.org/2000/svg" viewBox="0 0 23 23">
	<path d="m1.5,2.42v3.68c0,.45.32.82.71.82h18.58c.39,0,.71-.36.71-.82v-3.68c0-.45-.32-.82-.71-.82H2.21c-.39,0-.71.36-.71.82Zm2.14,3.07c-.63,0-1.14-.64-1.14-1.42s.51-1.42,1.14-1.42,1.14.64,1.14,1.42-.51,1.42-1.14,1.42Zm16.11-.43H7.53c-.39,0-.71-.36-.71-.82v-.34c0-.45.32-.82.71-.82h12.21c.39,0,.71.36.71.82v.34c0,.45-.32.82-.71.82Z"/>
	<path d="m1.5,9.77v3.68c0,.45.32.82.71.82h18.58c.39,0,.71-.36.71-.82v-3.68c0-.45-.32-.82-.71-.82H2.21c-.39,0-.71.36-.71.82Zm2.14,3.07c-.63,0-1.14-.64-1.14-1.42s.51-1.42,1.14-1.42,1.14.64,1.14,1.42-.51,1.42-1.14,1.42Zm16.11-.43H7.53c-.39,0-.71-.36-.71-.82v-.34c0-.45.32-.82.71-.82h12.21c.39,0,.71.36.71.82v.34c0,.45-.32.82-.71.82Z"/>
	<path d="m1.5,17.11v3.68c0,.45.32.82.71.82h18.58c.39,0,.71-.36.71-.82v-3.68c0-.45-.32-.82-.71-.82H2.21c-.39,0-.71.36-.71.82Zm2.14,3.07c-.63,0-1.14-.64-1.14-1.42s.51-1.42,1.14-1.42,1.14.64,1.14,1.42-.51,1.42-1.14,1.42Zm16.11-.43H7.53c-.39,0-.71-.36-.71-.82v-.34c0-.45.32-.82.71-.82h12.21c.39,0,.71.36.71.82v.34c0,.45-.32.82-.71.82Z"/>
</svg>