<!--
    SPDX-FileCopyrightText: 2024 Evgeny Kazantsev <exequtic@gmail.com>
    SPDX-License-Identifier: MIT

    https://github.com/exequtic/apdatifier
-->

<svg version="1.0" xmlns="http://www.w3.org/2000/svg" viewBox="0 0 23 23">
    <path d="m20.02,13.39c-.59,0-.93.29-1.07.68-.95,2.82-3.56,4.52-6.64,4.52-1.67,0-3.26-.58-4.52-1.64-.19-.16-.19-.44-.01-.61l1.5-1.46c.53-.52.16-1.42-.58-1.42l-5.62.1c-.55.01-1,.46-1,1.01v5.37c.18.8,1.1.88,1.54.45l1.39-1.36c.16-.15.4-.15.56,0,1.86,1.66,4.23,2.58,6.74,2.58,5.25,0,8.46-3.36,9.71-7.7.08-.26-.13-.53-.41-.53h-1.6Z"/>
    <path d="m4.07,9.82c.59,0,.93-.29,1.07-.68.95-2.82,3.56-4.52,6.64-4.52,1.68,0,3.26.58,4.53,1.64.19.15.19.44.01.61l-1.5,1.46c-.53.52-.16,1.42.58,1.42l5.62-.1c.55-.01.99-.46.99-1.01V3.28c-.18-.8-1.1-.88-1.54-.45l-1.39,1.36c-.16.15-.4.15-.56,0-1.86-1.67-4.23-2.58-6.75-2.58-5.25,0-8.46,3.37-9.71,7.71-.08.26.13.53.41.53h1.6Z"/>
</svg>