<!--
    SPDX-FileCopyrightText: 2024 Evgeny Kazantsev <exequtic@gmail.com>
    SPDX-License-Identifier: MIT

    https://github.com/exequtic/apdatifier
-->

<svg version="1.0" xmlns="http://www.w3.org/2000/svg" viewBox="0 0 23 23">
    <path d="m9.72,11.51h13.28v-3.68c0-1.31-1.04-2.37-2.33-2.37h-4.1v-2.09c0-1.09-.88-1.98-1.95-1.98h-6.72c-1.08,0-1.95.89-1.95,1.98v2.09h-3.6c-1.29,0-2.33,1.06-2.33,2.37v3.68h9.72Zm-1.66-7.97h6.37v1.91h-6.37v-1.91Z"/>
    <path d="m9.72,12.93h3.71c.16,0,.29.13.29.29v.67c0,.16-.13.29-.29.29h-3.71c-.16,0-.29-.13-.29-.29v-.67c0-.16.13-.29.29-.29Z"/>
    <path d="m15.12,12.93c.02.1.03.19.03.29v.67c0,.94-.77,1.71-1.71,1.71h-3.71c-.94,0-1.71-.77-1.71-1.71v-.67c0-.1.01-.2.03-.29H0v6.08c0,1.31,1.04,2.37,2.33,2.37h18.33c1.29,0,2.33-1.06,2.33-2.37v-6.08h-7.88Z"/>
</svg>