<!--
    SPDX-FileCopyrightText: 2024 Evgeny Kazantsev <exequtic@gmail.com>
    SPDX-License-Identifier: MIT

    https://github.com/exequtic/apdatifier
-->

<svg version="1.0" xmlns="http://www.w3.org/2000/svg" viewBox="0 0 23 23">
    <path d="m20.88,17.92l-3.29-3.28c.85-1.32,1.35-2.88,1.35-4.56,0-4.73-3.91-8.57-8.72-8.57S1.5,5.35,1.5,10.08s3.91,8.57,8.72,8.57c1.55,0,3-.4,4.26-1.1.01.01.02.03.03.04l3.31,3.3c.41.4.95.63,1.53.63.55,0,1.07-.2,1.47-.57.43-.39.67-.92.68-1.5.01-.57-.21-1.11-.62-1.52ZM3.98,10.08c0-3.36,2.8-6.09,6.24-6.09s6.24,2.73,6.24,6.09-2.8,6.09-6.24,6.09-6.24-2.73-6.24-6.09Z"/>
</svg>