<!--
    SPDX-FileCopyrightText: 2024 Evgeny Kazantsev <exequtic@gmail.com>
    SPDX-License-Identifier: MIT

    https://github.com/exequtic/apdatifier
-->

<svg version="1.0" xmlns="http://www.w3.org/2000/svg" viewBox="0 0 23 23">
    <path d="m9.15,17.22h-2.11V2.27c0-.42-.38-.77-.86-.77h-1.15c-.47,0-.86.34-.86.77v14.96h-2.11c-.49,0-.74.52-.4.84l3.55,3.29c.22.2.58.2.8,0l3.55-3.29c.34-.31.09-.84-.4-.84Z"/>
    <path d="m19.62,9.26l-.42-1.08h-3.54l-.42,1.1c-.16.43-.3.72-.42.87s-.3.23-.56.23c-.22,0-.42-.08-.59-.24s-.26-.34-.26-.54c0-.12.02-.24.06-.36s.1-.3.2-.52l2.23-5.58c.06-.16.14-.35.23-.58s.18-.41.28-.56.23-.27.4-.36.37-.14.61-.14.45.05.61.14.3.21.4.35.19.3.26.47.16.39.26.67l2.27,5.54c.18.42.27.73.27.92s-.08.38-.25.55-.37.25-.61.25c-.14,0-.26-.02-.36-.07s-.18-.12-.25-.2-.14-.21-.22-.39-.14-.33-.2-.46Zm-3.49-2.38h2.6l-1.31-3.54-1.29,3.54Z"/>
    <path d="m14.27,19.5l4.47-5.28h-3.84c-.27,0-.47-.06-.61-.18s-.2-.27-.2-.46.07-.36.2-.48.34-.18.61-.18h4.95c.64,0,.96.29.96.88,0,.28-.05.51-.16.67s-.32.44-.65.81l-4.18,4.91h4.61c.27,0,.48.06.61.17s.2.27.2.47-.07.37-.2.49-.34.18-.61.18h-5.65c-.38,0-.67-.08-.87-.25s-.29-.4-.29-.68c0-.1.02-.19.05-.27s.07-.16.13-.23.13-.16.22-.28.18-.21.25-.29Z"/>
</svg>