<!--
    SPDX-FileCopyrightText: 2024 Evgeny Kazantsev <exequtic@gmail.com>
    SPDX-License-Identifier: MIT

    https://github.com/exequtic/apdatifier
-->

<svg version="1.0" xmlns="http://www.w3.org/2000/svg" viewBox="0 0 23 23">
    <path d="m20.33,1.42H2.89C1.63,1.42.61,2.47.61,3.77v15.31c0,1.29,1.02,2.34,2.28,2.34h17.44c1.26,0,2.28-1.05,2.28-2.34V3.77c0-1.29-1.02-2.34-2.28-2.34Zm-9.99,10.67l-3.1,3.29c-.21.22-.48.33-.76.33-.26,0-.53-.1-.73-.3-.42-.42-.43-1.1-.02-1.53l2.38-2.53-2.35-2.45c-.41-.43-.4-1.11.01-1.53.41-.42,1.08-.41,1.49.01l3.07,3.2c.4.42.4,1.09,0,1.51Zm6.5,3.62h-4.07c-.58,0-1.05-.48-1.05-1.08s.47-1.08,1.05-1.08h4.07c.58,0,1.05.48,1.05,1.08s-.47,1.08-1.05,1.08Z"/>
</svg>