<?xml version="1.0" encoding="utf-8"?>
<!-- Uploaded to: SVG Repo, www.svgrepo.com, Generator: SVG Repo Mixer Tools -->
<svg fill="#000000" width="800px" height="800px" viewBox="0 0 32 32" version="1.1" xmlns="http://www.w3.org/2000/svg">
<title>archlinux</title>
<path d="M29.619 27.697v-0.779h-0.292v-0.105h0.702v0.105h-0.292v0.779h0.414v-0.884h0.177l0.209 0.625 0.042 0.134q0.022-0.072 0.047-0.142l0.212-0.616h0.157v0.884h-0.114v-0.741l-0.257 0.741h-0.105l-0.256-0.752v0.752h-0.114zM15.238 1.76c-1.267 3.108-2.032 5.142-3.443 8.156 1.088 1.18 2.284 2.23 3.582 3.145l0.070 0.047c-1.556-0.601-2.899-1.385-4.093-2.347l0.029 0.023c-1.807 3.769-4.636 9.137-10.38 19.456 3.237-2.106 6.997-3.765 11.016-4.772l0.257-0.054c-0.136-0.561-0.214-1.205-0.214-1.868 0-0.023 0-0.046 0-0.069l-0 0.003 0.004-0.144c0.072-2.893 1.576-5.117 3.358-4.965 1.782 0.15 3.167 2.619 3.097 5.51-0.012 0.557-0.078 1.091-0.193 1.608l0.010-0.054c4.227 1.076 7.939 2.726 11.286 4.893l-0.147-0.089c-0.877-1.616-1.662-3.073-2.411-4.461-1.436-1.262-3.048-2.387-4.777-3.322l-0.138-0.068c1.484 0.355 2.791 0.885 3.991 1.58l-0.071-0.038c-3.56-6.078-7.19-13.365-10.358-20.894l-0.476-1.275z"></path>
</svg>