<?xml version="1.0" encoding="UTF-8" standalone="no"?>
<!-- Uploaded to: SVG Repo, www.svgrepo.com, Generator: SVG Repo Mixer Tools -->
<svg xmlns:dc="http://purl.org/dc/elements/1.1/"
     xmlns:cc="http://creativecommons.org/ns#"
     xmlns:rdf="http://www.w3.org/1999/02/22-rdf-syntax-ns#"
     xmlns:svg="http://www.w3.org/2000/svg"
     xmlns="http://www.w3.org/2000/svg"
     xmlns:xlink="http://www.w3.org/1999/xlink"
     width="128" height="128" version="1.1">
    <title>Clarity Icon</title>
    <desc>This is shape (source) for Clarity vector icon theme for gtk</desc>
    <metadata>
        <rdf:RDF>
            <cc:Work rdf:about="">
                <dc:title>Clarity Icon</dc:title>
                <dc:description>This is shape (source) for Clarity vector icon theme for gtk</dc:description>
                <dc:creator>
                    <cc:Agent>
                        <dc:title>Jakub Jankiewicz</dc:title>
                    </cc:Agent>
                </dc:creator>
                <dc:rights>
                    <cc:Agent>
                        <dc:title>Jakub Jankiewicz</dc:title>
                    </cc:Agent>
                </dc:rights>
                <dc:date>2010</dc:date>
                <dc:format>image/svg+xml</dc:format>
                <dc:type rdf:resource="http://purl.org/dc/dcmitype/StillImage" />
                <cc:license rdf:resource="http://creativecommons.org/licenses/by-sa/3.0/" />
             </cc:Work>
        </rdf:RDF>
    </metadata>
    <path d="m 70.646872,6.9433463 c -1.765015,0.144216 -3.518959,0.2517892 -5.25867,0.4744657 L 66.17898,7.496888 C 67.454346,7.032537 69.286734,7.2558319 70.646872,6.9433441 z M 62.936792,7.773662 C 60.064689,7.9457571 56.091191,9.4539096 57.322273,8.0899732 52.637075,10.18016 44.319678,13.117395 39.648398,17.500224 l -0.158155,-0.988472 c -2.140793,2.564662 -9.316624,7.660419 -9.884717,10.991806 l -0.593084,0.158155 c -1.110884,1.882683 -1.809299,3.992477 -2.688644,5.93083 -1.090323,1.860858 -1.765528,1.493126 -1.937403,1.344323 -2.861982,5.807469 -4.309421,10.703962 -5.535442,14.708459 0.875549,1.304467 0.02562,7.903029 0.35585,13.166444 -1.432256,25.991904 18.266957,51.192391 39.776103,57.015041 3.149192,1.12734 7.834073,1.1169 11.822122,1.22571 -4.705442,-1.34369 -5.337748,-0.731 -9.924256,-2.33279 -3.302288,-1.55626 -4.023792,-3.30704 -6.365759,-5.33775 l 0.948933,1.62109 c -4.59157,-1.62078 -2.669032,-2.02091 -6.405297,-3.20265 l 0.988472,-1.26524 c -1.487927,-0.11387 -3.952938,-2.50676 -4.626049,-3.83527 l -1.621093,0.0395 c -1.952271,-2.41155 -3.000525,-4.14714 -2.925876,-5.49589 l -0.514006,0.94893 c -0.592134,-1.01849 -7.220746,-9.063541 -3.79573,-7.196042 -0.632623,-0.578216 -1.458827,-0.944503 -2.372333,-2.609564 l 0.672161,-0.790778 c -1.644817,-2.120549 -3.029627,-4.828487 -2.925877,-5.733137 0.874284,1.185534 1.493305,1.379117 2.09556,1.581555 -4.161387,-10.324389 -4.398936,-0.568727 -7.551924,-10.517338 l 0.672161,-0.03954 c -0.509893,-0.771803 -0.815766,-1.591998 -1.225704,-2.411875 l 0.276772,-2.886337 C 23.209085,68.130217 25.37455,56.851517 25.809794,50.673332 c 0.297332,-2.510245 2.520998,-5.170104 4.191119,-9.370713 l -1.02801,-0.197695 c 1.94721,-3.399709 11.125605,-13.650715 15.38062,-13.126904 2.061082,-2.584894 -0.385899,-0.02435 -0.790776,-0.672161 4.527042,-4.680137 5.921024,-3.306398 8.975322,-4.151582 3.292165,-1.95227 -2.826554,0.790145 -1.265243,-0.711699 5.693597,-1.453765 4.032965,-3.336132 11.466273,-4.072504 0.554899,0.315682 -0.55608,0.564799 -1.502478,0.869856 5.062348,-1.84419 14.503252,-1.18105 20.757906,1.700171 7.739497,3.618598 16.417803,14.29346 16.764483,24.355944 l 0.39539,0.118617 c -0.19232,3.99817 0.60858,8.638452 -0.79078,12.889671 l 0.90939,-1.937405 c 0.0819,2.969486 -0.92171,4.45025 -1.81878,7.037919 l -1.6211,0.830317 c -1.33483,2.595014 0.12368,1.65051 -0.83031,3.716654 -2.086391,1.853582 -6.311673,5.802407 -7.670545,6.168063 -0.989421,-0.02024 0.652234,-1.175728 0.869855,-1.621094 -2.792393,1.91811 -2.253716,2.86641 -6.523913,4.032965 L 81.5596,76.25498 C 71.022649,81.212205 56.382513,71.397076 56.571034,57.988022 c -0.108813,0.850243 -0.320739,0.646856 -0.553544,0.988472 -0.544055,-6.894314 3.198537,-13.853788 9.489329,-16.685404 6.149085,-3.04038 13.349904,-1.774187 17.752953,2.332794 -2.416617,-3.168171 -7.22043,-6.518853 -12.929211,-6.207602 -5.589847,0.08857 -10.823528,3.612587 -12.573361,7.472845 -2.860716,1.797912 -3.183353,6.963903 -4.428353,7.907775 -1.680244,12.346249 3.158997,17.684945 11.347655,23.960555 0.642744,0.432713 0.720874,0.684971 0.672161,0.909394 9.657607,3.603414 19.631524,2.743049 27.99352,-3.953887 2.125607,-1.654939 4.468207,-4.507747 5.140057,-4.546971 -0.88235,1.3274 -0.0908,0.890237 -0.39539,1.660633 1.55151,-2.760641 -0.97278,-1.173078 1.97694,-5.456363 l 1.14663,1.581555 c -0.42512,-2.837943 3.52339,-6.306292 3.12357,-10.794112 0.90464,-1.368994 1.00365,1.47306 0.0395,4.626047 1.33484,-3.499664 0.33182,-4.03328 0.67217,-6.919302 0.36565,0.967912 0.8553,1.982637 1.10708,3.004954 -0.86542,-3.379466 0.90403,-5.704351 1.34433,-7.67054 -0.43019,-0.188521 -1.33452,1.4971 -1.54202,-2.490949 0.0303,-1.734649 0.45928,-0.87966 0.63263,-1.304783 -0.33656,-0.192316 -1.23646,-1.557515 -1.77925,-4.112043 0.38969,-0.59846 1.08336,1.570801 1.62109,1.660633 -0.34035,-2.02692 -0.96444,-3.583803 -0.98847,-5.140053 -1.56764,-3.276981 -0.54849,0.454539 -1.81879,-1.383861 -1.66506,-5.205212 1.37405,-1.235826 1.58155,-3.598037 2.52544,3.662881 3.96433,9.351418 4.62605,11.703507 -0.50357,-2.865779 -1.29498,-5.655325 -2.29326,-8.342703 0.7718,0.320107 -1.24467,-5.861874 0.98848,-1.73971 C 106.13883,26.668809 98.294,18.42448 91.088437,14.574343 c 0.874285,0.804721 2.020911,1.813727 1.621094,1.976943 -3.58317,-2.129417 -2.964465,-2.303059 -3.479421,-3.202648 -2.915121,-1.186773 -3.128947,0.09365 -5.060975,0 -5.50125,-2.916373 -6.559626,-2.600076 -11.624397,-4.4283525 l 0.237233,1.1070875 c -3.642637,-1.2108374 -4.244577,0.455463 -8.184547,0 -0.2366,-0.1822076 1.256072,-0.6926953 2.49095,-0.8698552 -3.518643,0.4643571 -3.350366,-0.6962248 -6.800686,0.1186167 0.845183,-0.5921596 1.744455,-0.9938381 2.649104,-1.5024769 z m 2.846799,0.6326223 c 1.0084,0.1771466 2.18476,0.3118694 2.016483,0.5535446 C 68.9021,8.7181537 69.14914,8.5049728 65.783591,8.4062843 z m 2.016483,0.5535446 -0.7117,0.1581544 0.672161,-0.039543 0.03954,-0.1186167 z M 61.078466,19.279473 c -0.322895,0.111024 -0.627562,0.211289 -0.790778,0.355849 0.250043,-0.122424 0.511374,-0.249249 0.790778,-0.355849 z M 21.262823,31.378367 c 0.292272,2.722805 -2.046848,3.774856 0.514006,1.976944 1.37785,-3.104909 -0.532984,-0.849612 -0.514006,-1.976944 z m -2.095559,8.659013 c -1.63596,2.090182 -0.737322,2.530487 -0.909395,3.953886 0.592134,-1.81436 0.68165,-2.901204 0.909395,-3.953886 z m 67.413773,12.652437 c -0.232805,0.0062 -0.561136,0.578534 -0.7117,1.225706 0.345411,0.18346 0.648121,2.397005 0.988472,1.02801 0.113872,-1.700488 -0.04396,-2.259883 -0.276772,-2.253716 z m 20.639283,5.733137 -0.27677,0.672161 c -0.50356,3.613536 -1.59515,7.196075 -3.28172,10.517339 1.85864,-3.499665 3.05367,-7.308997 3.55849,-11.1895 z m -21.864988,1.265243 c -0.251784,1.250062 -0.938812,2.338171 -1.581556,3.479421 -3.533825,2.224299 -0.331493,-1.339893 0,-2.688643 -3.79573,4.783887 -0.532983,2.890766 -0.67216,4.23066 1.126067,-1.552455 1.96777,-3.261483 2.253716,-5.021438 z m -7.71008,7.314692 c -1.532211,0.375777 -3.128632,0.380205 -4.705125,0.237233 -1.887744,0.02531 0.380837,0.964748 2.846798,1.344321 0.683231,-0.532667 1.310477,-1.057744 1.858327,-1.581554 z m -23.881477,0.237233 c 0.415,1.53221 1.299721,2.852493 2.095559,4.191121 l -0.593082,-1.739711 c -0.657928,-0.72625 -1.062172,-1.582187 -1.502477,-2.45141 z m -1.462938,2.570027 -0.237233,1.344321 c 1.239938,1.685305 2.209115,3.504093 3.79573,4.823742 -1.136188,-2.224299 -1.997187,-3.152987 -3.558497,-6.168063 z m 2.41187,1.976942 c 4.418231,7.917897 17.946535,13.872134 25.028105,10.912729 -3.27192,0.117668 -7.428563,0.04903 -11.110423,-1.304783 -1.352861,-0.696359 -3.149614,-2.038952 -3.321265,-2.570027 -0.06971,0.168218 -0.184028,0.341538 -0.118616,0.593084 -2.717743,-1.270305 -5.189714,-3.216566 -7.235614,-5.574981 1.086845,1.586616 2.239166,3.133377 3.756193,4.349276 -2.564649,-0.865427 -6.000102,-6.187675 -6.99838,-6.405298 z"/>
</svg>