<?xml version="1.0" encoding="utf-8"?>
<!-- Uploaded to: SVG Repo, www.svgrepo.com, Generator: SVG Repo Mixer Tools -->
<svg fill="#000000" width="800px" height="800px" viewBox="0 0 32 32" version="1.1" xmlns="http://www.w3.org/2000/svg">
<title>fedora</title>
<path d="M8.903 29.322s0.112 0.009 0.342 0.031q-0.171-0.017-0.342-0.032zM8.618 29.272l0.187 0.031zM7.31 25.209c0.211 0.166 0.448 0.315 0.702 0.437l0.023 0.010-0.031 0.006-0.022-0.019c-0.255-0.131-0.475-0.275-0.678-0.44l0.007 0.005zM3.121 24.879c1.178 1.095 2.314 2.184 3.472 3.299l0.025 0.025c0.099 0.257 0.237 0.478 0.41 0.666l-0.001-0.002c-1.8-0.747-3.195-2.169-3.889-3.941l-0.016-0.048zM2.649 22.737q2.087 1.912 4.116 3.885c-0.136 0.244-0.226 0.532-0.25 0.839l-0 0.007c-0.002 0.031-0.003 0.067-0.003 0.104s0.001 0.073 0.003 0.109l-0-0.005c-1.15-1.105-2.319-2.224-3.599-3.387-0.138-0.456-0.234-0.986-0.268-1.533l-0.001-0.020zM2.736 21.125c1.65 1.486 3.164 2.945 4.724 4.447l0.219 0.207c-0.298 0.135-0.547 0.332-0.739 0.577l-0.003 0.004q-2.116-2.049-4.308-4.018c-0-0.013-0-0.029-0-0.045 0-0.415 0.039-0.822 0.114-1.215l-0.006 0.040zM21.316 18.009l0.55 0.442c-0.326 0.072-0.704 0.118-1.092 0.129l-0.008 0h-0.020c0.23-0.151 0.42-0.341 0.567-0.564l0.005-0.007zM23.465 17.896l-0.062 0.029zM21.3 16.953l-0.034 0.331zM5.406 16.762q1.234 1.14 2.447 2.304c-1.032 0.618-1.75 1.669-1.906 2.895l-0.002 0.020q-1.341-1.261-2.719-2.482-0.060 0.136-0.114 0.275c0.971 0.872 1.902 1.738 2.814 2.608 0.018 0.634 0.182 1.225 0.46 1.747l-0.010-0.021q-1.757-1.679-3.574-3.293c0.034-0.135 0.050-0.271 0.092-0.404 0.191-0.684 0.468-1.283 0.827-1.823l-0.015 0.023c0.862 0.776 1.687 1.551 2.502 2.324q0.061-0.148 0.134-0.29-1.225-1.153-2.482-2.273c0.199-0.286 0.4-0.536 0.617-0.771l-0.004 0.005q1.216 1.111 2.406 2.252c0.067-0.075 0.137-0.152 0.21-0.222q-1.197-1.135-2.424-2.237c0.226-0.222 0.467-0.431 0.721-0.623l0.018-0.013zM21.527 16.331c0.591 0.525 1.197 1.057 1.842 1.606-0.319 0.159-0.696 0.305-1.087 0.416l-0.047 0.011-0.771-0.622c0.105-0.231 0.167-0.501 0.167-0.786 0-0.224-0.038-0.44-0.108-0.64l0.004 0.014zM6.504 16.076c0.9 0.842 1.781 1.683 2.667 2.537-0.384 0.049-0.732 0.155-1.052 0.311l0.020-0.009c-0.8-0.762-1.625-1.537-2.497-2.331 0.244-0.169 0.527-0.338 0.82-0.488l0.042-0.020zM7.791 15.576l0.777 0.74c-0.069 0.19-0.108 0.41-0.108 0.639 0 0.239 0.043 0.469 0.123 0.68l-0.004-0.013c-0.585-0.555-1.175-1.116-1.789-1.684 0.275-0.127 0.608-0.25 0.952-0.348l0.052-0.013zM8.129 15.483l-0.159 0.040 0.159-0.037zM9.371 15.308l-0.025 0.018h-0.016l0.005 0.005c-0.265 0.176-0.48 0.407-0.632 0.678l-0.005 0.010-0.562-0.534c0.363-0.091 0.787-0.153 1.222-0.174l0.016-0.001zM21.925 14.998q1.286 1.146 2.609 2.249c-0.264 0.191-0.564 0.375-0.878 0.537l-0.039 0.018q-1.433-1.226-2.819-2.506c-0.030 0.002-0.062 0.001-0.092 0.004l-0.032-0.019c0.459-0.036 0.885-0.137 1.282-0.294l-0.030 0.010zM22.999 14.255q1.236 1.088 2.506 2.137c-0.234 0.246-0.482 0.474-0.744 0.683l-0.015 0.011q-1.296-1.083-2.553-2.212c0.274-0.147 0.51-0.324 0.715-0.531l0-0c0.034-0.027 0.059-0.059 0.091-0.087zM23.753 13.236c0.805 0.7 1.65 1.413 2.553 2.149-0.204 0.305-0.409 0.571-0.631 0.821l0.006-0.007q-1.262-1.043-2.487-2.131c0.22-0.239 0.407-0.513 0.55-0.812l0.009-0.020zM23.668 9.789c1.122 1 2.319 2.028 3.646 3.105-0.079 0.414-0.184 0.776-0.317 1.123l0.015-0.045q-1.466-1.197-2.883-2.453l0.003 0.069c0 0.095-0.005 0.19-0.012 0.282 0.879 0.765 1.8 1.546 2.799 2.356-0.153 0.367-0.312 0.676-0.492 0.971l0.018-0.031q-1.307-1.071-2.574-2.189c0.157-0.407 0.248-0.878 0.248-1.37 0-0.664-0.166-1.29-0.458-1.838l0.010 0.021zM23.011 7.502q2.153 1.972 4.411 3.824c0 0.089 0.019 0.175 0.016 0.262 0 0.017 0 0.036 0 0.056 0 0.339-0.027 0.672-0.080 0.997l0.005-0.036q-2.627-2.15-5.101-4.479c0.305-0.146 0.557-0.358 0.746-0.619l0.004-0.006zM23.378 6.14q1.816 1.664 3.706 3.244c-0.017-0.055-0.041-0.109-0.061-0.162 0.195 0.515 0.329 1.111 0.375 1.731l0.001 0.021q-2.172-1.797-4.236-3.718l0.019-0.041c0.108-0.221 0.18-0.478 0.2-0.75l0-0.007c0.003-0.037 0.004-0.080 0.004-0.123s-0.002-0.086-0.005-0.129l0 0.006c-0-0.026-0.002-0.050-0.005-0.075l0 0.003zM22.816 4.972c1.83 0.723 3.268 2.108 4.043 3.852l0.018 0.047q-1.852-1.576-3.628-3.239c-0.11-0.255-0.255-0.473-0.433-0.659l0.001 0.001zM21.286 4.622l0.162 0.030zM20.405 4.557c0.042-0.001 0.091-0.002 0.14-0.002 0.48 0 0.948 0.054 1.398 0.156l-0.042-0.008c0.668 0.302 1.125 0.961 1.127 1.728v0c-0.031 0.869-0.743 1.561-1.616 1.561-0.038 0-0.076-0.001-0.113-0.004l0.005 0c-0.27-0.071-0.58-0.112-0.9-0.112h-0c-2.065 0.026-3.728 1.706-3.728 3.774 0 0.125 0.006 0.249 0.018 0.371l-0.001-0.015c0.030 0.995-0.055 2.001 0.041 2.989 0.416 0.571 1.233 0.225 1.843 0.32 0.345 0 0.702 0.009 1.062 0.010 0.016 0.006 0.034 0.009 0.052 0.010h0c0.893 0.001 1.616 0.725 1.616 1.618s-0.725 1.618-1.618 1.618c-0.003 0-0.005 0-0.008-0h0c-0 0-0.001 0-0.001 0-0.027 0-0.052 0.006-0.075 0.017l0.001-0c-0.971 0.004-1.941 0-2.912 0.003 0.038 0.484 0.059 1.049 0.059 1.618 0 1.568-0.163 3.098-0.472 4.574l0.025-0.144c-1.007 2.775-3.621 4.722-6.689 4.722-0.591 0-1.165-0.072-1.714-0.208l0.049 0.010c-0.644-0.291-1.084-0.928-1.085-1.667v-0c0.039-0.877 0.759-1.572 1.642-1.572 0.096 0 0.191 0.008 0.282 0.024l-0.010-0.001c0.094 0.008 0.141 0.015 0.21 0.025 0.219 0.049 0.471 0.077 0.73 0.077 0.708 0 1.366-0.211 1.916-0.574l-0.013 0.008c1.088-0.736 1.794-1.965 1.794-3.359 0-0.223-0.018-0.441-0.053-0.654l0.003 0.023c-0.025-0.858 0.054-1.73-0.041-2.582-0.416-0.57-1.23-0.225-1.839-0.32h-1c-0.023-0.012-0.050-0.019-0.078-0.019-0.002 0-0.003 0-0.005 0h0c-0.001 0-0.001 0-0.002 0-0.894 0-1.618-0.725-1.618-1.618 0-0.891 0.72-1.614 1.61-1.618h0c0.029-0 0.056-0.008 0.080-0.020l-0.001 0h2.894c-0.028-0.462-0.044-1.002-0.044-1.546 0-1.449 0.113-2.872 0.33-4.26l-0.020 0.154c0.875-2.967 3.571-5.098 6.766-5.106h0.001zM16.006 1.006c-6.164 0.012-11.457 3.731-13.768 9.045l-0.038 0.097c-0.779 1.915-1.232 4.136-1.232 6.463 0 0.463 0.018 0.922 0.053 1.376l-0.004-0.060c0.012 3.332-0.025 6.667 0.019 9.996 0.223 1.743 1.697 3.076 3.482 3.076 0.153 0 0.304-0.010 0.451-0.029l-0.018 0.002c4.070-0.025 8.14 0.055 12.209-0.042 7.764-0.617 13.832-7.070 13.832-14.94 0-8.276-6.709-14.984-14.984-14.984-0.001 0-0.002 0-0.003 0h0z"></path>
</svg>