<?xml version="1.0" encoding="UTF-8" standalone="no"?>
<!-- Uploaded to: SVG Repo, www.svgrepo.com, Generator: SVG Repo Mixer Tools -->
<svg xmlns:dc="http://purl.org/dc/elements/1.1/"
     xmlns:cc="http://creativecommons.org/ns#"
     xmlns:rdf="http://www.w3.org/1999/02/22-rdf-syntax-ns#"
     xmlns:svg="http://www.w3.org/2000/svg"
     xmlns="http://www.w3.org/2000/svg"
     xmlns:xlink="http://www.w3.org/1999/xlink"
     width="128" height="128" version="1.1">
    <title>Clarity Icon</title>
    <desc>This is shape (source) for Clarity vector icon theme for gtk</desc>
    <metadata>
        <rdf:RDF>
            <cc:Work rdf:about="">
                <dc:title>Clarity Icon</dc:title>
                <dc:description>This is shape (source) for Clarity vector icon theme for gtk</dc:description>
                <dc:creator>
                    <cc:Agent>
                        <dc:title>Jakub Jankiewicz</dc:title>
                    </cc:Agent>
                </dc:creator>
                <dc:rights>
                    <cc:Agent>
                        <dc:title>Jakub Jankiewicz</dc:title>
                    </cc:Agent>
                </dc:rights>
                <dc:date>2010</dc:date>
                <dc:format>image/svg+xml</dc:format>
                <dc:type rdf:resource="http://purl.org/dc/dcmitype/StillImage" />
                <cc:license rdf:resource="http://creativecommons.org/licenses/by-sa/3.0/" />
             </cc:Work>
        </rdf:RDF>
    </metadata>
    <path d="M 54.878019,6.9788514 C 52.606309,6.9535784 50.349243,7.1298802 48.202612,7.5224513 27.557638,11.297954 13.03336,29.175728 11.80318,40.942955 c -0.603575,5.773536 2.501488,10.095232 4.218334,12.002691 4.63995,5.1551 13.884763,9.088063 19.830521,12.350577 -8.595713,7.329018 -12.534104,10.904523 -16.416711,14.981605 -5.809783,6.100788 -9.9028087,12.802819 -9.9152607,17.612633 -0.0038,1.549276 -0.254083,6.493739 1.7612617,10.393629 0.757878,1.46659 2.920173,6.35912 9.415149,10.02397 4.151245,2.34237 10.061522,3.21813 15.851371,2.39184 17.918792,-2.55727 41.931401,-17.76675 59.056672,-31.920162 10.914273,-9.020259 18.874243,-17.766235 21.178643,-22.070152 1.85931,-3.472614 2.07873,-9.702815 1.00022,-13.61174 C 114.71929,41.992425 89.810187,19.265055 69.446496,10.109986 64.983918,8.1037099 59.875796,7.0344423 54.878019,6.9788514 z m 3.479038,20.0044696 c 2.67668,-0.07916 5.808394,0.741961 9.175965,2.370094 8.02335,3.879065 16.268908,14.074868 -0.06525,19.939237 -4.441638,1.59466 -18.543969,-3.916534 -18.112744,-11.437338 0.412668,-7.290707 3.891987,-10.720867 9.002009,-10.871993 z"/>
</svg>