<?xml version="1.0" encoding="UTF-8" standalone="no"?>
<!-- Uploaded to: SVG Repo, www.svgrepo.com, Generator: SVG Repo Mixer Tools -->

<svg
   width="800px"
   height="800px"
   viewBox="0 0 76 76"
   version="1.1"
   enable-background="new 0 0 76.00 76.00"
   xml:space="preserve"
   id="svg1"
   sodipodi:docname="linux.svg"
   inkscape:version="1.3.2 (091e20ef0f, 2023-11-25, custom)"
   xmlns:inkscape="http://www.inkscape.org/namespaces/inkscape"
   xmlns:sodipodi="http://sodipodi.sourceforge.net/DTD/sodipodi-0.dtd"
   xmlns="http://www.w3.org/2000/svg"
   xmlns:svg="http://www.w3.org/2000/svg"><defs
   id="defs1" /><sodipodi:namedview
   id="namedview1"
   pagecolor="#ffffff"
   bordercolor="#000000"
   borderopacity="0.25"
   inkscape:showpageshadow="2"
   inkscape:pageopacity="0.0"
   inkscape:pagecheckerboard="0"
   inkscape:deskcolor="#d1d1d1"
   inkscape:zoom="1.50875"
   inkscape:cx="399.6686"
   inkscape:cy="401.9884"
   inkscape:window-width="2560"
   inkscape:window-height="1404"
   inkscape:window-x="0"
   inkscape:window-y="0"
   inkscape:window-maximized="1"
   inkscape:current-layer="svg1" />
	<path
   fill="#000000"
   fill-opacity="1"
   stroke-width="0.382164"
   stroke-linejoin="round"
   d="m 33.507864,20.710724 c 1.671009,0 3.025399,1.35458 3.025399,3.025401 0,1.67101 -1.35458,3.025589 -3.025399,3.025589 -1.671013,0 -3.025401,-1.354579 -3.025401,-3.025589 0,-1.670821 1.354388,-3.025401 3.025401,-3.025401 z m 9.832691,0 c 1.67101,0 3.025591,1.35458 3.025591,3.025401 0,1.67101 -1.354581,3.025589 -3.025591,3.025589 -1.67082,0 -3.0254,-1.354579 -3.0254,-3.025589 0,-1.670821 1.35458,-3.025401 3.0254,-3.025401 z M 14.484706,60.242128 C 13.098788,55.781895 12.329683,50.853129 12.329683,45.670796 l 0.02884,-1.735405 c -4.2668588,2.340753 -9.055753,4.760805 -10.6180389,4.760805 -4.0369877,0 3.4885826,-9.331294 13.3363699,-19.370163 0.928849,-2.59642 2.072091,-5.013988 3.397054,-7.20627 0.968599,-12.2537013 9.361681,-21.83091614 19.572141,-21.83091614 10.210462,0 18.603352,9.57721484 19.572137,21.83091614 1.324962,2.192282 2.468205,4.60985 3.397054,7.20627 9.847788,10.038869 17.373356,19.370163 13.336369,19.370163 -1.562285,0 -6.35118,-2.419862 -10.618039,-4.760805 l 0.02884,1.735405 c 0,5.182333 -0.769104,10.111099 -2.15502,14.571332 l -3.895779,-0.956747 c 0,-11.638606 -5.273859,-21.571807 -12.692995,-25.467967 L 38.046052,45.670796 31.074238,33.818942 C 23.654719,37.721789 18.380668,47.685755 18.38086,59.46003 Z M 30.482272,13.903433 c -4.177241,0 -7.563595,4.063738 -7.563595,9.07639 0,5.01284 3.386354,9.076389 7.563595,9.076389 4.177433,0 7.563785,-4.063549 7.563785,-9.076389 0,-5.012652 -3.386352,-9.07639 -7.563785,-9.07639 z m 7.563785,9.07639 c 0,3.341831 3.386354,6.80729 7.563595,6.80729 4.177241,0 7.563595,-3.465459 7.563595,-6.80729 0,-3.341832 -3.386354,-6.807293 -7.563595,-6.807293 -4.177241,0 -7.563595,3.465461 -7.563595,6.807293 z m -15.12738,37.818354 c 5.85475,0 10.738612,2.598522 11.85988,6.050798 h 0.998403 v 3.025592 h -0.998403 c -1.121268,3.452276 -6.00513,6.050799 -11.85988,6.050799 -6.683662,0 -12.101789,-3.386354 -12.101789,-7.563595 0,-4.177241 5.418127,-7.563594 12.101789,-7.563594 z m 30.25457,0 c 6.683663,0 12.10198,3.386353 12.10198,7.563594 0,4.177241 -5.418317,7.563595 -12.10198,7.563595 -5.854749,0 -10.738419,-2.598523 -11.859688,-6.050799 h -0.998404 v -3.025592 h 0.998404 c 1.121269,-3.452276 6.004939,-6.050798 11.859688,-6.050798 z"
   id="path1" />
</svg>
