<?xml version="1.0" encoding="utf-8"?>

<!DOCTYPE svg PUBLIC "-//W3C//DTD SVG 1.1//EN" "http://www.w3.org/Graphics/SVG/1.1/DTD/svg11.dtd">
<!-- Uploaded to: SVG Repo, www.svgrepo.com, Generator: SVG Repo Mixer Tools -->
<svg height="800px" width="800px" version="1.1" id="_x32_" xmlns="http://www.w3.org/2000/svg" xmlns:xlink="http://www.w3.org/1999/xlink" 
	 viewBox="0 0 512 512"  xml:space="preserve">
<style type="text/css">
	.st0{fill:#000000;}
</style>
<g>
	<path class="st0" d="M106.672,42.432c0-9.958-8.074-18.032-18.022-18.032h-6.63c-9.948,0-18.022,8.074-18.022,18.032v49.878h42.674
		V42.432z"/>
	<path class="st0" d="M192.003,42.432c0-9.958-8.074-18.032-18.023-18.032h-6.62c-9.94,0-18.013,8.074-18.013,18.032v49.878h42.657
		V42.432z"/>
	<path class="st0" d="M277.332,42.432c0-9.958-8.074-18.032-18.022-18.032h-6.62c-9.94,0-18.013,8.074-18.013,18.032v49.878h42.656
		V42.432z"/>
	<path class="st0" d="M362.672,42.432c0-9.958-8.074-18.032-18.014-18.032h-6.638c-9.94,0-18.014,8.074-18.014,18.032v49.878h42.666
		V42.432z"/>
	<path class="st0" d="M63.998,469.569c0,9.958,8.074,18.031,18.022,18.031h6.63c9.949,0,18.022-8.074,18.022-18.031v-49.86H63.998
		V469.569z"/>
	<path class="st0" d="M149.346,469.569c0,9.958,8.074,18.031,18.013,18.031h6.62c9.949,0,18.023-8.074,18.023-18.031v-49.86h-42.657
		V469.569z"/>
	<path class="st0" d="M234.677,469.569c0,9.958,8.074,18.031,18.013,18.031h6.62c9.948,0,18.022-8.074,18.022-18.031v-49.86h-42.656
		V469.569z"/>
	<path class="st0" d="M320.006,469.569c0,9.958,8.074,18.031,18.014,18.031h6.638c9.94,0,18.014-8.074,18.014-18.031v-49.86h-42.666
		V469.569z"/>
	<path class="st0" d="M448.002,42.432c0-9.958-8.056-18.032-18.032-18.032h-6.62c-9.94,0-18.013,8.074-18.013,18.032v49.878h42.665
		V42.432z"/>
	<path class="st0" d="M405.337,469.569c0,9.958,8.074,18.031,18.013,18.031h6.62c9.976,0,18.032-8.074,18.032-18.031v-49.86h-42.665
		V469.569z"/>
	<path class="st0" d="M168.176,223.974h-19.206c-0.529,0-0.789,0.26-0.789,0.79v23.978c0,0.529,0.26,0.79,0.789,0.79h19.206
		c8.209,0,13.77-5.033,13.77-12.712C181.946,229.007,176.384,223.974,168.176,223.974z"/>
	<polygon class="st0" points="250.536,232.317 238.48,267.286 262.845,267.286 250.932,232.317 	"/>
	<path class="st0" d="M0,118.971v274.076h512V118.971H0z M198.38,300.002h-14.712c-1.058,0-1.578-0.395-1.982-1.328l-17.215-35.103
		h-15.502c-0.529,0-0.789,0.269-0.789,0.798v34.304c0,0.798-0.538,1.328-1.328,1.328h-12.989c-0.79,0-1.319-0.529-1.319-1.328
		v-87.42c0-0.799,0.529-1.328,1.319-1.328h34.842c16.561,0,28.742,10.998,28.742,26.895c0,11.788-6.754,20.929-17.08,24.768
		l18.937,36.69C199.834,299.204,199.305,300.002,198.38,300.002z M288.286,300.002h-12.99c-0.915,0-1.453-0.395-1.713-1.328
		l-5.966-17.485h-33.91l-5.956,17.485c-0.269,0.932-0.79,1.328-1.722,1.328h-12.847c-0.932,0-1.201-0.529-0.932-1.328l30.859-87.42
		c0.269-0.799,0.807-1.328,1.722-1.328h12.192c0.924,0,1.462,0.529,1.722,1.328l30.465,87.42
		C289.47,299.473,289.21,300.002,288.286,300.002z M381.771,298.675c0,0.798-0.53,1.328-1.328,1.328h-11.527
		c-0.79,0-1.319-0.529-1.319-1.328v-55.099h-0.529l-19.072,42.388c-0.538,1.193-1.327,1.722-2.52,1.722h-7.688
		c-1.184,0-1.982-0.529-2.512-1.722l-19.071-42.388h-0.529v55.099c0,0.798-0.53,1.328-1.328,1.328h-11.528
		c-0.789,0-1.318-0.529-1.318-1.328v-87.42c0-0.799,0.529-1.328,1.318-1.328h11.788c1.202,0,1.867,0.404,2.261,1.328l24.768,55.502
		h0.529l24.374-55.502c0.394-0.924,1.058-1.328,2.252-1.328h11.652c0.798,0,1.328,0.529,1.328,1.328V298.675z"/>
</g>
</svg>