<?xml version="1.0" encoding="UTF-8" standalone="no"?>
<svg
   version="1.1"
   viewBox="0 0 16 16"
   id="svg1"
   sodipodi:docname="plasmoid.svg"
   inkscape:version="1.3.2 (091e20ef0f, 2023-11-25, custom)"
   xmlns:inkscape="http://www.inkscape.org/namespaces/inkscape"
   xmlns:sodipodi="http://sodipodi.sourceforge.net/DTD/sodipodi-0.dtd"
   xmlns="http://www.w3.org/2000/svg"
   xmlns:svg="http://www.w3.org/2000/svg">
  <sodipodi:namedview
     id="namedview1"
     pagecolor="#ffffff"
     bordercolor="#000000"
     borderopacity="0.25"
     inkscape:showpageshadow="2"
     inkscape:pageopacity="0.0"
     inkscape:pagecheckerboard="0"
     inkscape:deskcolor="#d1d1d1"
     showgrid="true"
     inkscape:zoom="53.262665"
     inkscape:cx="7.491176"
     inkscape:cy="8.5895063"
     inkscape:window-width="2560"
     inkscape:window-height="1404"
     inkscape:window-x="0"
     inkscape:window-y="0"
     inkscape:window-maximized="1"
     inkscape:current-layer="svg1">
    <inkscape:grid
       id="grid1"
       units="px"
       originx="0"
       originy="0"
       spacingx="1"
       spacingy="1"
       empcolor="#0099e5"
       empopacity="0.30196078"
       color="#0099e5"
       opacity="0.14901961"
       empspacing="5"
       dotted="false"
       gridanglex="30"
       gridanglez="30"
       visible="true" />
  </sodipodi:namedview>
  <defs
     id="defs1">
    <style
       type="text/css"
       id="current-color-scheme"> .ColorScheme-Text { color:#232629; } </style>
  </defs>
  <path
     id="path1"
     style="fill:#000000;fill-opacity:1"
     class="ColorScheme-Text"
     d="M 8 2 A 6 6 0 0 0 2.0917969 7 L 3.1152344 7 A 5 5 0 0 1 8 3 A 5 5 0 0 1 12.564453 6 L 9 6 L 9 7 L 12.896484 7 L 13 7 L 13.914062 7 L 14 7 L 14 2 L 13 2 L 13 4.6894531 A 6 6 0 0 0 8 2 z M 5.2792969 5.2929688 L 5.2792969 7.7265625 L 7.7109375 7.7265625 L 7.7109375 5.2929688 L 5.2792969 5.2929688 z M 8.2832031 8.2695312 L 8.2832031 10.703125 L 10.716797 10.703125 L 10.716797 8.2695312 L 8.2832031 8.2695312 z M 2 9 L 2 14 L 3 14 L 3 11.300781 A 6 6 0 0 0 8 14 A 6 6 0 0 0 13.908203 9 L 12.884766 9 A 5 5 0 0 1 8 13 A 5 5 0 0 1 3.4453125 10 L 7 10 L 7 9 L 3.1152344 9 L 3 9 L 2.0917969 9 L 2 9 z " />
</svg>
