<!--
	SPDX-FileCopyrightText: 2023 Evgeny Kazantsev <exequtic@gmail.com>
	SPDX-License-Identifier: MIT
-->

<svg
	version="1.1"
	xmlns="http://www.w3.org/2000/svg"
	viewBox="0 0 24 24">
	<defs>
		<style type="text/css" id="current-color-scheme">
			.ColorScheme-Text { color: #232629; }     
		</style>
	</defs>
	<path class="ColorScheme-Text" style="fill:currentColor"
		d="m9.6094 13.32c-.68385 0-1.25.56615-1.25 1.25v.12891c0 .68385.56615 1.25 1.25 1.25h4.791c.68385 0 1.25-.56615 1.25-1.25v-.12891c0-.68385-.56615-1.25-1.25-1.25zm0 1h4.791c.14715 0 .25.10285.25.25v.12891c0 .14715-.10285.25-.25.25h-4.791c-.14715 0-.25-.10285-.25-.25v-.12891c0-.14715.10285-.25.25-.25z"/>
		<g stroke-linecap="round" stroke-linejoin="round" class="ColorScheme-Text" style="fill:currentColor">
			<path d="m4.9707 10.02a.75008.75008 0 00-.75.75v9.0996c0 1.0232.84592 1.8711 1.8691 1.8711h11.91c1.0232 0 1.8691-.84787 1.8691-1.8711v-9.0996a.75008.75008 0 00-.75-.75zm.75 1.5h12.648v8.3496c0 .21677-.15237.37109-.36914.37109h-11.91c-.21677 0-.36914-.15432-.36914-.37109z"/>
			<path d="m7.5098 7.1602a.75008.75008 0 00-.56055.25195l-2.5391 2.8594a.75008.75008 0 00.56055 1.248h14.148a.75008.75008 0 00.5625-1.248l-2.541-2.8594a.75008.75008 0 00-.56055-.25195zm.33594 1.5h8.3965l1.207 1.3594h-10.811z"/>
			<path d="m15.746 3.6992-7.4453.041016c-.57783 0-1.1067.42379-1.209 1.0117a.75008.75008 0 00-.00781.046875l-.20703 1.9082-2.3945-1.375c-.37855-.23296-.83629-.23296-1.2148 0a.75008.75008 0 00-.00781.00391l-2.7324 1.7246c-.00054767.000337.00054683.00162 0 .00195-.71708.44295-.71521 1.5381.005859 1.9707a.75008.75008 0 00.003906.00195l4.0313 2.3906a.75.75 0 001.0273-.26367.75.75 0 00-.26367-1.0273l-3.5391-2.0996 2.0898-1.3184 3.2441 1.8633a.75008.75008 0 001.1191-.57031l.30078-2.7715 6.9668-.037109.31055 2.8105a.75008.75008 0 001.127.56445l3.1641-1.8613 2.0918 1.3145-3.4746 2.0996a.75.75 0 00-.25391 1.0293.75.75 0 001.0293.25391l3.9336-2.377c.72984-.4325.72984-1.5675 0-2l-2.7031-1.6992a.75008.75008 0 00-.0059-.00391c-.35475-.21833-.84467-.24519-1.2382.0078162l-2.3047 1.3555-.21484-1.9277a.75008.75008 0 00-.0059-.046875c-.10095-.5807-.61862-1.0458-1.25-1.0195z"/>
		</g>
</svg>